<svg version="1.1" xmlns="http://www.w3.org/2000/svg" xmlns:xlink="http://www.w3.org/1999/xlink" width="828" height="556"><defs></defs><g><g transform="translate(10,2) scale(1,1)"><rect fill="#C0C0C0" stroke="none" x="239" y="15" width="88" height="57" opacity="0.2"></rect></g><g transform="translate(10,2) scale(1,1)"><rect fill="#adc8ff" stroke="none" x="232" y="8" width="88" height="57"></rect></g><g transform="translate(10,2) scale(1,1)"><path fill="none" stroke="#000000" d="M 232 8 L 320 8 L 320 65 L 232 65 L 232 8 Z Z" stroke-miterlimit="10"></path></g><g transform="translate(10,2) scale(1,1)"><path fill="none" stroke="#000000" d="M 232 33 L 320 33" stroke-miterlimit="10"></path></g><g transform="translate(10,2) scale(1,1)"><path fill="none" stroke="#000000" d="M 232 56 L 320 56" stroke-miterlimit="10"></path></g><g transform="translate(10,2) scale(1,1)"><g><path fill="none" stroke="none"></path><text fill="#000000" stroke="none" font-family="Arial" font-size="13px" font-style="normal" font-weight="bold" text-decoration="none" x="243" y="27.5">Component</text></g></g><g transform="translate(10,2) scale(1,1)"><g><path fill="none" stroke="none"></path><text fill="#000000" stroke="none" font-family="Arial" font-size="13px" font-style="normal" font-weight="normal" text-decoration="none" x="237" y="50.5">#_pin</text></g></g><g transform="translate(10,2) scale(1,1)"><rect fill="#C0C0C0" stroke="none" x="7" y="111" width="104" height="130" opacity="0.2"></rect></g><g transform="translate(10,2) scale(1,1)"><rect fill="#adc8ff" stroke="none" x="0" y="104" width="104" height="130"></rect></g><g transform="translate(10,2) scale(1,1)"><path fill="none" stroke="#000000" d="M 0 104 L 104 104 L 104 234 L 0 234 L 0 104 Z Z" stroke-miterlimit="10"></path></g><g transform="translate(10,2) scale(1,1)"><path fill="none" stroke="#000000" d="M 0 129 L 104 129" stroke-miterlimit="10"></path></g><g transform="translate(10,2) scale(1,1)"><path fill="none" stroke="#000000" d="M 0 152 L 104 152" stroke-miterlimit="10"></path></g><g transform="translate(10,2) scale(1,1)"><g><path fill="none" stroke="none"></path><text fill="#000000" stroke="none" font-family="Arial" font-size="13px" font-style="normal" font-weight="bold" text-decoration="none" x="39.5" y="123.5">LED</text></g></g><g transform="translate(10,2) scale(1,1)"><g><path fill="none" stroke="none"></path><text fill="#000000" stroke="none" font-family="Arial" font-size="13px" font-style="normal" font-weight="normal" text-decoration="none" x="5" y="146.5">-state: bool</text></g></g><g transform="translate(10,2) scale(1,1)"><g><path fill="none" stroke="none"></path><text fill="#000000" stroke="none" font-family="Arial" font-size="13px" font-style="normal" font-weight="normal" text-decoration="none" x="5" y="169.5">+set(state: bool)</text></g></g><g transform="translate(10,2) scale(1,1)"><g><path fill="none" stroke="none"></path><text fill="#000000" stroke="none" font-family="Arial" font-size="13px" font-style="normal" font-weight="normal" text-decoration="none" x="5" y="184.5">+on()</text></g></g><g transform="translate(10,2) scale(1,1)"><g><path fill="none" stroke="none"></path><text fill="#000000" stroke="none" font-family="Arial" font-size="13px" font-style="normal" font-weight="normal" text-decoration="none" x="5" y="199.5">+off()</text></g></g><g transform="translate(10,2) scale(1,1)"><g><path fill="none" stroke="none"></path><text fill="#000000" stroke="none" font-family="Arial" font-size="13px" font-style="normal" font-weight="normal" text-decoration="none" x="5" y="214.5">+togle()</text></g></g><g transform="translate(10,2) scale(1,1)"><g><path fill="none" stroke="none"></path><text fill="#000000" stroke="none" font-family="Arial" font-size="13px" font-style="normal" font-weight="normal" text-decoration="none" x="5" y="229.5">+state()</text></g></g><g transform="translate(10,2) scale(1,1)"><rect fill="#C0C0C0" stroke="none" x="439" y="111" width="90" height="85" opacity="0.2"></rect></g><g transform="translate(10,2) scale(1,1)"><rect fill="#adc8ff" stroke="none" x="432" y="104" width="90" height="85"></rect></g><g transform="translate(10,2) scale(1,1)"><path fill="none" stroke="#000000" d="M 432 104 L 522 104 L 522 189 L 432 189 L 432 104 Z Z" stroke-miterlimit="10"></path></g><g transform="translate(10,2) scale(1,1)"><path fill="none" stroke="#000000" d="M 432 129 L 522 129" stroke-miterlimit="10"></path></g><g transform="translate(10,2) scale(1,1)"><path fill="none" stroke="#000000" d="M 432 152 L 522 152" stroke-miterlimit="10"></path></g><g transform="translate(10,2) scale(1,1)"><g><path fill="none" stroke="none"></path><text fill="#000000" stroke="none" font-family="Arial" font-size="13px" font-style="normal" font-weight="bold" text-decoration="none" x="453.5" y="123.5">Release</text></g></g><g transform="translate(10,2) scale(1,1)"><g><path fill="none" stroke="none"></path><text fill="#000000" stroke="none" font-family="Arial" font-size="13px" font-style="normal" font-weight="normal" text-decoration="none" x="437" y="146.5">-_servo: Servo</text></g></g><g transform="translate(10,2) scale(1,1)"><g><path fill="none" stroke="none"></path><text fill="#000000" stroke="none" font-family="Arial" font-size="13px" font-style="normal" font-weight="normal" text-decoration="none" x="437" y="169.5">+open()</text></g></g><g transform="translate(10,2) scale(1,1)"><g><path fill="none" stroke="none"></path><text fill="#000000" stroke="none" font-family="Arial" font-size="13px" font-style="normal" font-weight="normal" text-decoration="none" x="437" y="184.5">+close()</text></g></g><g transform="translate(10,2) scale(1,1)"><rect fill="#C0C0C0" stroke="none" x="235" y="111" width="88" height="72" opacity="0.2"></rect></g><g transform="translate(10,2) scale(1,1)"><rect fill="#adc8ff" stroke="none" x="228" y="104" width="88" height="72"></rect></g><g transform="translate(10,2) scale(1,1)"><path fill="none" stroke="#000000" d="M 228 104 L 316 104 L 316 176 L 228 176 L 228 104 Z Z" stroke-miterlimit="10"></path></g><g transform="translate(10,2) scale(1,1)"><path fill="none" stroke="#000000" d="M 228 129 L 316 129" stroke-miterlimit="10"></path></g><g transform="translate(10,2) scale(1,1)"><path fill="none" stroke="#000000" d="M 228 139 L 316 139" stroke-miterlimit="10"></path></g><g transform="translate(10,2) scale(1,1)"><g><path fill="none" stroke="none"></path><text fill="#000000" stroke="none" font-family="Arial" font-size="13px" font-style="normal" font-weight="bold" text-decoration="none" x="251.5" y="123.5">Sensor</text></g></g><g transform="translate(10,2) scale(1,1)"><g><path fill="none" stroke="none"></path><text fill="#000000" stroke="none" font-family="Arial" font-size="13px" font-style="normal" font-weight="normal" text-decoration="none" x="233" y="156.5">+name()</text></g></g><g transform="translate(10,2) scale(1,1)"><g><path fill="none" stroke="none"></path><text fill="#000000" stroke="none" font-family="Arial" font-size="13px" font-style="normal" font-weight="normal" text-decoration="none" x="233" y="171.5">+read()</text></g></g><g transform="translate(10,2) scale(1,1)"><rect fill="#C0C0C0" stroke="none" x="23" y="287" width="73" height="44" opacity="0.2"></rect></g><g transform="translate(10,2) scale(1,1)"><rect fill="#adc8ff" stroke="none" x="16" y="280" width="73" height="44"></rect></g><g transform="translate(10,2) scale(1,1)"><path fill="none" stroke="#000000" d="M 16 280 L 89 280 L 89 324 L 16 324 L 16 280 Z Z" stroke-miterlimit="10"></path></g><g transform="translate(10,2) scale(1,1)"><path fill="none" stroke="#000000" d="M 16 305 L 89 305" stroke-miterlimit="10"></path></g><g transform="translate(10,2) scale(1,1)"><path fill="none" stroke="#000000" d="M 16 315 L 89 315" stroke-miterlimit="10"></path></g><g transform="translate(10,2) scale(1,1)"><g><path fill="none" stroke="none"></path><text fill="#000000" stroke="none" font-family="Arial" font-size="13px" font-style="normal" font-weight="bold" text-decoration="none" x="22.5" y="299.5">GreenLED</text></g></g><g transform="translate(10,2) scale(1,1)"><rect fill="#C0C0C0" stroke="none" x="237" y="286" width="78" height="44" opacity="0.2"></rect></g><g transform="translate(10,2) scale(1,1)"><rect fill="#adc8ff" stroke="none" x="230" y="279" width="78" height="44"></rect></g><g transform="translate(10,2) scale(1,1)"><path fill="none" stroke="#000000" d="M 230 279 L 308 279 L 308 323 L 230 323 L 230 279 Z Z" stroke-miterlimit="10"></path></g><g transform="translate(10,2) scale(1,1)"><path fill="none" stroke="#000000" d="M 230 304 L 308 304" stroke-miterlimit="10"></path></g><g transform="translate(10,2) scale(1,1)"><path fill="none" stroke="#000000" d="M 230 314 L 308 314" stroke-miterlimit="10"></path></g><g transform="translate(10,2) scale(1,1)"><g><path fill="none" stroke="none"></path><text fill="#000000" stroke="none" font-family="Arial" font-size="13px" font-style="normal" font-weight="bold" text-decoration="none" x="237.5" y="298.5">HallSensor</text></g></g><g transform="translate(10,2) scale(1,1)"><rect fill="#C0C0C0" stroke="none" x="127" y="287" width="90" height="44" opacity="0.2"></rect></g><g transform="translate(10,2) scale(1,1)"><rect fill="#adc8ff" stroke="none" x="120" y="280" width="90" height="44"></rect></g><g transform="translate(10,2) scale(1,1)"><path fill="none" stroke="#000000" d="M 120 280 L 210 280 L 210 324 L 120 324 L 120 280 Z Z" stroke-miterlimit="10"></path></g><g transform="translate(10,2) scale(1,1)"><path fill="none" stroke="#000000" d="M 120 305 L 210 305" stroke-miterlimit="10"></path></g><g transform="translate(10,2) scale(1,1)"><path fill="none" stroke="#000000" d="M 120 315 L 210 315" stroke-miterlimit="10"></path></g><g transform="translate(10,2) scale(1,1)"><g><path fill="none" stroke="none"></path><text fill="#000000" stroke="none" font-family="Arial" font-size="13px" font-style="normal" font-weight="bold" text-decoration="none" x="127.5" y="299.5">PhotoSensor</text></g></g><g transform="translate(10,2) scale(1,1)"><rect fill="#C0C0C0" stroke="none" x="335" y="286" width="55" height="44" opacity="0.2"></rect></g><g transform="translate(10,2) scale(1,1)"><rect fill="#adc8ff" stroke="none" x="328" y="279" width="55" height="44"></rect></g><g transform="translate(10,2) scale(1,1)"><path fill="none" stroke="#000000" d="M 328 279 L 383 279 L 383 323 L 328 323 L 328 279 Z Z" stroke-miterlimit="10"></path></g><g transform="translate(10,2) scale(1,1)"><path fill="none" stroke="#000000" d="M 328 304 L 383 304" stroke-miterlimit="10"></path></g><g transform="translate(10,2) scale(1,1)"><path fill="none" stroke="#000000" d="M 328 314 L 383 314" stroke-miterlimit="10"></path></g><g transform="translate(10,2) scale(1,1)"><g><path fill="none" stroke="none"></path><text fill="#000000" stroke="none" font-family="Arial" font-size="13px" font-style="normal" font-weight="bold" text-decoration="none" x="336" y="298.5">Trigger</text></g></g><g transform="translate(10,2) scale(1,1)"><path fill="none" stroke="#000000" d="M 105 138 L 231 63" stroke-miterlimit="10"></path></g><g transform="translate(10,2) scale(1,1)"><path fill="#FFFFFF" stroke="none" d="M 217.84077239576357 80.63050563256488 L 231 63 L 209.22837083733296 66.16167101440148"></path></g><g transform="translate(10,2) scale(1,1)"><path fill="none" stroke="#000000" d="M 217.84077239576357 80.63050563256488 L 231 63 L 209.22837083733296 66.16167101440148 L 217.84077239576357 80.63050563256488" stroke-miterlimit="10"></path></g><g transform="translate(10,2) scale(1,1)"><path fill="none" stroke="#000000" d="M 52 279 L 52 235" stroke-miterlimit="10"></path></g><g transform="translate(10,2) scale(1,1)"><path fill="#FFFFFF" stroke="none" d="M 60.419035512031975 255.3253497152483 L 52 235 L 43.580964487968025 255.3253497152483"></path></g><g transform="translate(10,2) scale(1,1)"><path fill="none" stroke="#000000" d="M 60.419035512031975 255.3253497152483 L 52 235 L 43.580964487968025 255.3253497152483 L 60.419035512031975 255.3253497152483" stroke-miterlimit="10"></path></g><g transform="translate(10,2) scale(1,1)"><path fill="none" stroke="#000000" d="M 180 279 L 248 177" stroke-miterlimit="10"></path></g><g transform="translate(10,2) scale(1,1)"><path fill="#FFFFFF" stroke="none" d="M 243.7305855004323 198.58175386364326 L 248 177 L 229.7204635487784 189.24167256254066"></path></g><g transform="translate(10,2) scale(1,1)"><path fill="none" stroke="#000000" d="M 243.7305855004323 198.58175386364326 L 248 177 L 229.7204635487784 189.24167256254066 L 243.7305855004323 198.58175386364326" stroke-miterlimit="10"></path></g><g transform="translate(10,2) scale(1,1)"><path fill="none" stroke="#000000" d="M 269 278 L 271 177" stroke-miterlimit="10"></path></g><g transform="translate(10,2) scale(1,1)"><path fill="#FFFFFF" stroke="none" d="M 279.0149820824131 197.4880468131688 L 271 177 L 262.1802113467039 197.1546850164221"></path></g><g transform="translate(10,2) scale(1,1)"><path fill="none" stroke="#000000" d="M 279.0149820824131 197.4880468131688 L 271 177 L 262.1802113467039 197.1546850164221 L 279.0149820824131 197.4880468131688" stroke-miterlimit="10"></path></g><g transform="translate(10,2) scale(1,1)"><path fill="none" stroke="#000000" d="M 343 278 L 291 177" stroke-miterlimit="10"></path></g><g transform="translate(10,2) scale(1,1)"><path fill="#FFFFFF" stroke="none" d="M 307.78906528247427 191.2171476373011 L 291 177 L 292.8186204075553 198.9247034144871"></path></g><g transform="translate(10,2) scale(1,1)"><path fill="none" stroke="#000000" d="M 307.78906528247427 191.2171476373011 L 291 177 L 292.8186204075553 198.9247034144871 L 307.78906528247427 191.2171476373011" stroke-miterlimit="10"></path></g><g transform="translate(10,2) scale(1,1)"><path fill="none" stroke="#000000" d="M 273 103 L 275 66" stroke-miterlimit="10"></path></g><g transform="translate(10,2) scale(1,1)"><path fill="#FFFFFF" stroke="none" d="M 282.3096968638628 86.75014052382377 L 275 66 L 265.49617114588585 85.84130129582502"></path></g><g transform="translate(10,2) scale(1,1)"><path fill="none" stroke="#000000" d="M 282.3096968638628 86.75014052382377 L 275 66 L 265.49617114588585 85.84130129582502 L 282.3096968638628 86.75014052382377" stroke-miterlimit="10"></path></g><g transform="translate(10,2) scale(1,1)"><path fill="none" stroke="#000000" d="M 431 121 L 321 61" stroke-miterlimit="10"></path></g><g transform="translate(10,2) scale(1,1)"><path fill="#FFFFFF" stroke="none" d="M 342.87500762616503 63.341803013752575 L 321 61 L 334.8120614397412 78.1238710221963"></path></g><g transform="translate(10,2) scale(1,1)"><path fill="none" stroke="#000000" d="M 342.87500762616503 63.341803013752575 L 321 61 L 334.8120614397412 78.1238710221963 L 342.87500762616503 63.341803013752575" stroke-miterlimit="10"></path></g><g transform="translate(10,2) scale(1,1)"><rect fill="#C0C0C0" stroke="none" x="727" y="391" width="88" height="57" opacity="0.2"></rect></g><g transform="translate(10,2) scale(1,1)"><rect fill="#adc8ff" stroke="none" x="720" y="384" width="88" height="57"></rect></g><g transform="translate(10,2) scale(1,1)"><path fill="none" stroke="#000000" d="M 720 384 L 808 384 L 808 441 L 720 441 L 720 384 Z Z" stroke-miterlimit="10"></path></g><g transform="translate(10,2) scale(1,1)"><path fill="none" stroke="#000000" d="M 720 409 L 808 409" stroke-miterlimit="10"></path></g><g transform="translate(10,2) scale(1,1)"><path fill="none" stroke="#000000" d="M 720 419 L 808 419" stroke-miterlimit="10"></path></g><g transform="translate(10,2) scale(1,1)"><g><path fill="none" stroke="none"></path><text fill="#000000" stroke="none" font-family="Arial" font-size="13px" font-style="normal" font-weight="bold" text-decoration="none" x="736.5" y="403.5">Controller</text></g></g><g transform="translate(10,2) scale(1,1)"><g><path fill="none" stroke="none"></path><text fill="#000000" stroke="none" font-family="Arial" font-size="13px" font-style="normal" font-weight="normal" text-decoration="none" x="725" y="436.5">+run()</text></g></g><g transform="translate(10,2) scale(1,1)"><rect fill="#C0C0C0" stroke="none" x="487" y="479" width="171" height="72" opacity="0.2"></rect></g><g transform="translate(10,2) scale(1,1)"><rect fill="#adc8ff" stroke="none" x="480" y="472" width="171" height="72"></rect></g><g transform="translate(10,2) scale(1,1)"><path fill="none" stroke="#000000" d="M 480 472 L 651 472 L 651 544 L 480 544 L 480 472 Z Z" stroke-miterlimit="10"></path></g><g transform="translate(10,2) scale(1,1)"><path fill="none" stroke="#000000" d="M 480 497 L 651 497" stroke-miterlimit="10"></path></g><g transform="translate(10,2) scale(1,1)"><path fill="none" stroke="#000000" d="M 480 535 L 651 535" stroke-miterlimit="10"></path></g><g transform="translate(10,2) scale(1,1)"><g><path fill="none" stroke="none"></path><text fill="#000000" stroke="none" font-family="Arial" font-size="13px" font-style="normal" font-weight="bold" text-decoration="none" x="534.5" y="491.5">DataWriter</text></g></g><g transform="translate(10,2) scale(1,1)"><g><path fill="none" stroke="none"></path><text fill="#000000" stroke="none" font-family="Arial" font-size="13px" font-style="normal" font-weight="normal" text-decoration="none" x="485" y="514.5">-_sensors: **</text></g></g><g transform="translate(10,2) scale(1,1)"><g><path fill="none" stroke="none"></path><text fill="#000000" stroke="none" font-family="Arial" font-size="13px" font-style="normal" font-weight="normal" text-decoration="none" x="485" y="529.5">-_numSensors: unsigned int</text></g></g><g transform="translate(10,2) scale(1,1)"><rect fill="#C0C0C0" stroke="none" x="545" y="399" width="113" height="44" opacity="0.2"></rect></g><g transform="translate(10,2) scale(1,1)"><rect fill="#adc8ff" stroke="none" x="538" y="392" width="113" height="44"></rect></g><g transform="translate(10,2) scale(1,1)"><path fill="none" stroke="#000000" d="M 538 392 L 651 392 L 651 436 L 538 436 L 538 392 Z Z" stroke-miterlimit="10"></path></g><g transform="translate(10,2) scale(1,1)"><path fill="none" stroke="#000000" d="M 538 417 L 651 417" stroke-miterlimit="10"></path></g><g transform="translate(10,2) scale(1,1)"><path fill="none" stroke="#000000" d="M 538 427 L 651 427" stroke-miterlimit="10"></path></g><g transform="translate(10,2) scale(1,1)"><g><path fill="none" stroke="none"></path><text fill="#000000" stroke="none" font-family="Arial" font-size="13px" font-style="normal" font-weight="bold" text-decoration="none" x="548.5" y="411.5">DebugController</text></g></g><g transform="translate(10,2) scale(1,1)"><rect fill="#C0C0C0" stroke="none" x="479" y="279" width="179" height="85" opacity="0.2"></rect></g><g transform="translate(10,2) scale(1,1)"><rect fill="#adc8ff" stroke="none" x="472" y="272" width="179" height="85"></rect></g><g transform="translate(10,2) scale(1,1)"><path fill="none" stroke="#000000" d="M 472 272 L 651 272 L 651 357 L 472 357 L 472 272 Z Z" stroke-miterlimit="10"></path></g><g transform="translate(10,2) scale(1,1)"><path fill="none" stroke="#000000" d="M 475 272 L 475 357" stroke-miterlimit="10"></path></g><g transform="translate(10,2) scale(1,1)"><path fill="none" stroke="#000000" d="M 648 272 L 648 357" stroke-miterlimit="10"></path></g><g transform="translate(10,2) scale(1,1)"><path fill="none" stroke="#000000" d="M 472 297 L 651 297" stroke-miterlimit="10"></path></g><g transform="translate(10,2) scale(1,1)"><path fill="none" stroke="#000000" d="M 472 320 L 651 320" stroke-miterlimit="10"></path></g><g transform="translate(10,2) scale(1,1)"><g><path fill="none" stroke="none"></path><text fill="#000000" stroke="none" font-family="Arial" font-size="13px" font-style="normal" font-weight="bold" text-decoration="none" x="523.5" y="291.5">FallController</text></g></g><g transform="translate(10,2) scale(1,1)"><g><path fill="none" stroke="none"></path><text fill="#000000" stroke="none" font-family="Arial" font-size="13px" font-style="normal" font-weight="normal" text-decoration="none" x="477" y="314.5">-_pollIntervall = 10 {readOnly}</text></g></g><g transform="translate(10,2) scale(1,1)"><g><path fill="none" stroke="none"></path><text fill="#000000" stroke="none" font-family="Arial" font-size="13px" font-style="normal" font-weight="normal" text-decoration="none" x="477" y="337.5">-calculateNextReleaseTime()</text></g></g><g transform="translate(10,2) scale(1,1)"><g><path fill="none" stroke="none"></path><text fill="#000000" stroke="none" font-family="Arial" font-size="13px" font-style="normal" font-weight="normal" text-decoration="none" x="477" y="352.5">-releaseTheKraken()</text></g></g><g transform="translate(10,2) scale(1,1)"><path fill="none" stroke="#000000" d="M 652 413 L 719 413" stroke-miterlimit="10"></path></g><g transform="translate(10,2) scale(1,1)"><path fill="#FFFFFF" stroke="none" d="M 698.6746502847517 421.419035512032 L 719 413 L 698.6746502847517 404.580964487968"></path></g><g transform="translate(10,2) scale(1,1)"><path fill="none" stroke="#000000" d="M 698.6746502847517 421.419035512032 L 719 413 L 698.6746502847517 404.580964487968 L 698.6746502847517 421.419035512032" stroke-miterlimit="10"></path></g><g transform="translate(10,2) scale(1,1)"><path fill="none" stroke="#000000" d="M 642 471 L 719 434" stroke-miterlimit="10"></path></g><g transform="translate(10,2) scale(1,1)"><path fill="#FFFFFF" stroke="none" d="M 704.3263246875327 450.39156041456357 L 719 434 L 697.0335611582578 435.2147282049916"></path></g><g transform="translate(10,2) scale(1,1)"><path fill="none" stroke="#000000" d="M 704.3263246875327 450.39156041456357 L 719 434 L 697.0335611582578 435.2147282049916 L 704.3263246875327 450.39156041456357" stroke-miterlimit="10"></path></g><g transform="translate(10,2) scale(1,1)"><path fill="none" stroke="#000000" d="M 652 358 L 719 390" stroke-miterlimit="10"></path></g><g transform="translate(10,2) scale(1,1)"><path fill="#FFFFFF" stroke="none" d="M 697.0307499845089 388.8372215357836 L 719 390 L 704.2876028735287 373.6431857993985"></path></g><g transform="translate(10,2) scale(1,1)"><path fill="none" stroke="#000000" d="M 697.0307499845089 388.8372215357836 L 719 390 L 704.2876028735287 373.6431857993985 L 697.0307499845089 388.8372215357836" stroke-miterlimit="10"></path></g><g transform="translate(10,2) scale(1,1)"><rect fill="#C0C0C0" stroke="none" x="23" y="375" width="353" height="175" opacity="0.2"></rect></g><g transform="translate(10,2) scale(1,1)"><rect fill="#adc8ff" stroke="none" x="16" y="368" width="353" height="175"></rect></g><g transform="translate(10,2) scale(1,1)"><path fill="none" stroke="#000000" d="M 16 368 L 369 368 L 369 543 L 16 543 L 16 368 Z Z" stroke-miterlimit="10"></path></g><g transform="translate(10,2) scale(1,1)"><path fill="none" stroke="#000000" d="M 16 393 L 369 393" stroke-miterlimit="10"></path></g><g transform="translate(10,2) scale(1,1)"><path fill="none" stroke="#000000" d="M 16 476 L 369 476" stroke-miterlimit="10"></path></g><g transform="translate(10,2) scale(1,1)"><g><path fill="none" stroke="none"></path><text fill="#000000" stroke="none" font-family="Arial" font-size="13px" font-style="normal" font-weight="bold" text-decoration="none" x="179.5" y="387.5">Disk</text></g></g><g transform="translate(10,2) scale(1,1)"><g><path fill="none" stroke="none"></path><text fill="#000000" stroke="none" font-family="Arial" font-size="13px" font-style="normal" font-weight="normal" text-decoration="none" x="21" y="410.5">-_pSensorSampleSite: unsigned short</text></g></g><g transform="translate(10,2) scale(1,1)"><g><path fill="none" stroke="none"></path><text fill="#000000" stroke="none" font-family="Arial" font-size="13px" font-style="normal" font-weight="normal" text-decoration="none" x="21" y="425.5">-_position: DiskPosition</text></g></g><g transform="translate(10,2) scale(1,1)"><g><path fill="none" stroke="none"></path><text fill="#000000" stroke="none" font-family="Arial" font-size="13px" font-style="normal" font-weight="normal" text-decoration="none" x="21" y="440.5">-_pSensorLastValue</text></g></g><g transform="translate(10,2) scale(1,1)"><g><path fill="none" stroke="none"></path><text fill="#000000" stroke="none" font-family="Arial" font-size="13px" font-style="normal" font-weight="normal" text-decoration="none" x="21" y="455.5">-_timeIndex: unsigned short[_pSensorSampleSize]</text></g></g><g transform="translate(10,2) scale(1,1)"><g><path fill="none" stroke="none"></path><text fill="#000000" stroke="none" font-family="Arial" font-size="13px" font-style="normal" font-weight="normal" text-decoration="none" x="21" y="470.5">-_pSensorSampleSize = 12 {readOnly}</text><path fill="none" stroke="#000000" d="M 21 470.5 L 244 470.5" stroke-miterlimit="10"></path></g></g><g transform="translate(10,2) scale(1,1)"><g><path fill="none" stroke="none"></path><text fill="#000000" stroke="none" font-family="Arial" font-size="13px" font-style="normal" font-weight="normal" text-decoration="none" x="21" y="493.5">+isStable()</text></g></g><g transform="translate(10,2) scale(1,1)"><g><path fill="none" stroke="none"></path><text fill="#000000" stroke="none" font-family="Arial" font-size="13px" font-style="normal" font-weight="normal" text-decoration="none" x="21" y="508.5">+update()</text></g></g><g transform="translate(10,2) scale(1,1)"><g><path fill="none" stroke="none"></path><text fill="#000000" stroke="none" font-family="Arial" font-size="13px" font-style="normal" font-weight="normal" text-decoration="none" x="21" y="523.5">+millisPerRot()</text></g></g><g transform="translate(10,2) scale(1,1)"><g><path fill="none" stroke="none"></path><text fill="#000000" stroke="none" font-family="Arial" font-size="13px" font-style="normal" font-weight="normal" text-decoration="none" x="21" y="538.5">+position()</text></g></g><g transform="translate(10,2) scale(1,1)"><path fill="none" stroke="#000000" d="M 540 271 L 499 190" stroke-miterlimit="10"></path></g><g transform="translate(10,2) scale(1,1)"><path fill="none" stroke="#000000" d="M 507.3453957912464 197.16619627748545 L 499 190 L 499.83381997255225 200.96835193879977" stroke-miterlimit="10"></path></g><g transform="translate(10,2) scale(1,1)"><g><path fill="none" stroke="none"></path><text fill="#000000" stroke="none" font-family="Arial" font-size="13px" font-style="normal" font-weight="normal" text-decoration="none" x="528" y="242">-_release</text></g></g><g transform="translate(10,2) scale(1,1)"><path fill="none" stroke="#000000" d="M 471 308 L 384 303" stroke-miterlimit="10"></path></g><g transform="translate(10,2) scale(1,1)"><path fill="none" stroke="#000000" d="M 394.3874606952251 299.38051656929434 L 384 303 L 393.90440517514674 307.7856826186581" stroke-miterlimit="10"></path></g><g transform="translate(10,2) scale(1,1)"><g><path fill="none" stroke="none"></path><text fill="#000000" stroke="none" font-family="Arial" font-size="13px" font-style="normal" font-weight="normal" text-decoration="none" x="416" y="325">-_trigger</text></g></g><g transform="translate(10,2) scale(1,1)"><path fill="none" stroke="#000000" d="M 471 348 L 370 387" stroke-miterlimit="10"></path></g><g transform="translate(10,2) scale(1,1)"><path fill="none" stroke="#000000" d="M 377.9641028787853 379.41230829987643 L 370 387 L 380.9967794063666 387.2661628969461" stroke-miterlimit="10"></path></g><g transform="translate(10,2) scale(1,1)"><g><path fill="none" stroke="none"></path><text fill="#000000" stroke="none" font-family="Arial" font-size="13px" font-style="normal" font-weight="normal" text-decoration="none" x="423" y="380">-_disk</text></g></g><g transform="translate(10,2) scale(1,1)"><path fill="none" stroke="#000000" d="M 537 420 L 370 437" stroke-miterlimit="10"></path></g><g transform="translate(10,2) scale(1,1)"><path fill="none" stroke="#000000" d="M 379.68411453220153 431.78291980824497 L 370 437 L 380.53673583709093 440.1586702739229" stroke-miterlimit="10"></path></g><g transform="translate(10,2) scale(1,1)"><g><path fill="none" stroke="none"></path><text fill="#000000" stroke="none" font-family="Arial" font-size="13px" font-style="normal" font-weight="normal" text-decoration="none" x="464" y="444">-_disk</text></g></g><g transform="translate(10,2) scale(1,1)"><path fill="none" stroke="#000000" d="M 236 367 L 258 324" stroke-miterlimit="10"></path></g><g transform="translate(10,2) scale(1,1)"><path fill="none" stroke="#000000" d="M 257.1186629445558 334.9646361086313 L 258 324 L 249.6236320459284 331.1299691372405" stroke-miterlimit="10"></path></g><g transform="translate(10,2) scale(1,1)"><g><path fill="none" stroke="none"></path><text fill="#000000" stroke="none" font-family="Arial" font-size="13px" font-style="normal" font-weight="normal" text-decoration="none" x="248" y="364">-_hSensor</text></g></g><g transform="translate(10,2) scale(1,1)"><path fill="none" stroke="#000000" d="M 176 367 L 169 325" stroke-miterlimit="10"></path></g><g transform="translate(10,2) scale(1,1)"><path fill="none" stroke="#000000" d="M 174.82297619170473 334.33236027330923 L 169 325 L 166.51849071810935 335.7164411855751" stroke-miterlimit="10"></path></g><g transform="translate(10,2) scale(1,1)"><g><path fill="none" stroke="none"></path><text fill="#000000" stroke="none" font-family="Arial" font-size="13px" font-style="normal" font-weight="normal" text-decoration="none" x="104" y="365">-_pSensor</text></g></g></g></svg>