<svg version="1.1" xmlns="http://www.w3.org/2000/svg" xmlns:xlink="http://www.w3.org/1999/xlink" width="302" height="272"><defs></defs><g><g transform="translate(-13,-6) scale(1,1)"><path fill="#C0C0C0" stroke="none" d="M 129 87 L 214 87 Q 224 87 224 97 L 224 116 Q 224 126 214 126 L 129 126 Q 119 126 119 116 L 119 97 Q 119 87 129 87 Z" opacity="0.2"></path></g><g transform="translate(-13,-6) scale(1,1)"><path fill="#adc8ff" stroke="none" d="M 122 80 L 207 80 Q 217 80 217 90 L 217 109 Q 217 119 207 119 L 122 119 Q 112 119 112 109 L 112 90 Q 112 80 122 80 Z"></path></g><g transform="translate(-13,-6) scale(1,1)"><path fill="none" stroke="#000000" d="M 122 80 L 207 80 Q 217 80 217 90 L 217 109 Q 217 119 207 119 L 122 119 Q 112 119 112 109 L 112 90 Q 112 80 122 80 Z" stroke-miterlimit="10"></path></g><g transform="translate(-13,-6) scale(1,1)"><g><path fill="none" stroke="none"></path><text fill="#000000" stroke="none" font-family="Arial" font-size="13px" font-style="normal" font-weight="bold" text-decoration="none" x="122" y="99.5">Wait for trigger</text></g></g><g transform="translate(-13,-6) scale(1,1)"><path fill="#C0C0C0" stroke="none" d="M 162 32.5 C 162 27.2532944 166.2532944 23 171.5 23 C 176.7467056 23 181 27.2532944 181 32.5 C 181 37.7467056 176.7467056 42 171.5 42 C 166.2532944 42 162 37.7467056 162 32.5 Z" opacity="0.2"></path></g><g transform="translate(-13,-6) scale(1,1)"><path fill="#000000" stroke="none" d="M 155 25.5 C 155 20.2532944 159.2532944 16 164.5 16 C 169.7467056 16 174 20.2532944 174 25.5 C 174 30.7467056 169.7467056 35 164.5 35 C 159.2532944 35 155 30.7467056 155 25.5 Z"></path></g><g transform="translate(-13,-6) scale(1,1)"><path fill="none" stroke="#000000" d="M 164 36 L 164 79" stroke-miterlimit="10"></path></g><g transform="translate(-13,-6) scale(1,1)"><path fill="none" stroke="#000000" d="M 159.790482243984 68.83732514237585 L 164 79 L 168.209517756016 68.83732514237585" stroke-miterlimit="10"></path></g><g transform="translate(-13,-6) scale(1,1)"><path fill="#C0C0C0" stroke="none" d="M 129 199 L 214 199 Q 224 199 224 209 L 224 228 Q 224 238 214 238 L 129 238 Q 119 238 119 228 L 119 209 Q 119 199 129 199 Z" opacity="0.2"></path></g><g transform="translate(-13,-6) scale(1,1)"><path fill="#adc8ff" stroke="none" d="M 122 192 L 207 192 Q 217 192 217 202 L 217 221 Q 217 231 207 231 L 122 231 Q 112 231 112 221 L 112 202 Q 112 192 122 192 Z"></path></g><g transform="translate(-13,-6) scale(1,1)"><path fill="none" stroke="#000000" d="M 122 192 L 207 192 Q 217 192 217 202 L 217 221 Q 217 231 207 231 L 122 231 Q 112 231 112 221 L 112 202 Q 112 192 122 192 Z" stroke-miterlimit="10"></path></g><g transform="translate(-13,-6) scale(1,1)"><g><path fill="none" stroke="none"></path><text fill="#000000" stroke="none" font-family="Arial" font-size="13px" font-style="normal" font-weight="bold" text-decoration="none" x="131.5" y="211.5">ActiveState</text></g></g><g transform="translate(-13,-6) scale(1,1)"><path fill="none" stroke="#000000" d="M 157 120 Q 144 157 157 191" stroke-miterlimit="10"></path></g><g transform="translate(-13,-6) scale(1,1)"><path fill="none" stroke="#000000" d="M 149.43862026701197 183.01091140782893 L 157 191 L 157.30243583470187 180.0041583966534" stroke-miterlimit="10"></path></g><g transform="translate(-13,-6) scale(1,1)"><g><path fill="none" stroke="none"></path><text fill="#000000" stroke="none" font-family="Arial" font-size="13px" font-style="normal" font-weight="normal" text-decoration="none" x="23" y="167"> [triggerCounter &gt; 0]</text></g></g><g transform="translate(-13,-6) scale(1,1)"><path fill="none" stroke="#000000" d="M 172 191 Q 184 160 171 120" stroke-miterlimit="10"></path></g><g transform="translate(-13,-6) scale(1,1)"><path fill="none" stroke="#000000" d="M 178.14453605508575 128.36394670939382 L 171 120 L 170.13774645728765 130.9661533286782" stroke-miterlimit="10"></path></g><g transform="translate(-13,-6) scale(1,1)"><g><path fill="none" stroke="none"></path><text fill="#000000" stroke="none" font-family="Arial" font-size="13px" font-style="normal" font-weight="normal" text-decoration="none" x="182" y="164"> [triggerCounter == 0]</text></g></g><g transform="translate(-13,-6) scale(1,1)"><path fill="none" stroke="#000000" d="M 192 80 L 192 60 L 246 60 L 246 99 L 217 99" stroke-miterlimit="10"></path></g><g transform="translate(-13,-6) scale(1,1)"><path fill="none" stroke="#000000" d="M 227.16267485762415 94.79048224398402 L 217 99 L 227.16267485762415 103.20951775601598" stroke-miterlimit="10"></path></g><g transform="translate(-13,-6) scale(1,1)"><g><path fill="none" stroke="none"></path><text fill="#000000" stroke="none" font-family="Arial" font-size="13px" font-style="normal" font-weight="normal" text-decoration="none" x="208" y="52">update</text></g></g><g transform="translate(-13,-6) scale(1,1)"><path fill="none" stroke="#000000" d="M 164 231 L 164 248 L 248 248 L 248 211 L 217 211" stroke-miterlimit="10"></path></g><g transform="translate(-13,-6) scale(1,1)"><path fill="none" stroke="#000000" d="M 227.16267485762415 206.790482243984 L 217 211 L 227.16267485762415 215.209517756016" stroke-miterlimit="10"></path></g><g transform="translate(-13,-6) scale(1,1)"><g><path fill="none" stroke="none"></path><text fill="#000000" stroke="none" font-family="Arial" font-size="13px" font-style="normal" font-weight="normal" text-decoration="none" x="144" y="269"> [_triggerCounter &gt; 0]</text></g></g></g></svg>