<?xml version="1.0" encoding="UTF-8" standalone="no"?>
<svg
   xmlns:dc="http://purl.org/dc/elements/1.1/"
   xmlns:cc="http://creativecommons.org/ns#"
   xmlns:rdf="http://www.w3.org/1999/02/22-rdf-syntax-ns#"
   xmlns:svg="http://www.w3.org/2000/svg"
   xmlns="http://www.w3.org/2000/svg"
   xmlns:sodipodi="http://sodipodi.sourceforge.net/DTD/sodipodi-0.dtd"
   xmlns:inkscape="http://www.inkscape.org/namespaces/inkscape"
   version="1.1"
   width="810"
   height="596"
   id="svg2"
   inkscape:version="0.91 r"
   sodipodi:docname="fallcontroller_loop_activity_diagramm.svg">
  <metadata
     id="metadata454">
    <rdf:RDF>
      <cc:Work
         rdf:about="">
        <dc:format>image/svg+xml</dc:format>
        <dc:type
           rdf:resource="http://purl.org/dc/dcmitype/StillImage" />
        <dc:title></dc:title>
      </cc:Work>
    </rdf:RDF>
  </metadata>
  <sodipodi:namedview
     pagecolor="#ffffff"
     bordercolor="#666666"
     borderopacity="1"
     objecttolerance="10"
     gridtolerance="10"
     guidetolerance="10"
     inkscape:pageopacity="0"
     inkscape:pageshadow="2"
     inkscape:window-width="1366"
     inkscape:window-height="720"
     id="namedview452"
     showgrid="false"
     inkscape:zoom="0.79000895"
     inkscape:cx="381.34732"
     inkscape:cy="322.76109"
     inkscape:window-x="0"
     inkscape:window-y="21"
     inkscape:window-maximized="1"
     inkscape:current-layer="g414" />
  <defs
     id="defs4" />
  <g
     id="g6">
    <g
       transform="translate(12,2)"
       id="g8">
      <path
         d="m 298,24.5 c 0,-5.246706 4.25329,-9.5 9.5,-9.5 5.24671,0 9.5,4.253294 9.5,9.5 0,5.246706 -4.25329,9.5 -9.5,9.5 -5.24671,0 -9.5,-4.253294 -9.5,-9.5 z"
         id="path10"
         inkscape:connector-curvature="0"
         style="opacity:0.2;fill:#c0c0c0;stroke:none" />
    </g>
    <g
       transform="translate(12,2)"
       id="g12">
      <path
         d="m 291,17.5 c 0,-5.246706 4.25329,-9.5 9.5,-9.5 5.24671,0 9.5,4.253294 9.5,9.5 0,5.246706 -4.25329,9.5 -9.5,9.5 -5.24671,0 -9.5,-4.253294 -9.5,-9.5 z"
         id="path14"
         inkscape:connector-curvature="0"
         style="fill:#000000;stroke:none" />
    </g>
    <g
       transform="translate(12,2)"
       id="g16">
      <path
         d="m 273,79 69,0 q 10,0 10,10 l 0,20 q 0,10 -10,10 l -69,0 q -10,0 -10,-10 l 0,-20 q 0,-10 10,-10 z"
         id="path18"
         inkscape:connector-curvature="0"
         style="opacity:0.2;fill:#c0c0c0;stroke:none" />
    </g>
    <g
       transform="translate(12,2)"
       id="g20">
      <path
         d="m 266,72 69,0 q 10,0 10,10 l 0,20 q 0,10 -10,10 l -69,0 q -10,0 -10,-10 l 0,-20 q 0,-10 10,-10 z"
         id="path22"
         inkscape:connector-curvature="0"
         style="fill:#9ae79a;stroke:none" />
    </g>
    <g
       transform="translate(12,2)"
       id="g24">
      <path
         d="m 266,72 69,0 q 10,0 10,10 l 0,20 q 0,10 -10,10 l -69,0 q -10,0 -10,-10 l 0,-20 q 0,-10 10,-10 z"
         stroke-miterlimit="10"
         id="path26"
         inkscape:connector-curvature="0"
         style="fill:none;stroke:#000000;stroke-miterlimit:10" />
    </g>
    <g
       transform="translate(12,2)"
       id="g28">
      <g
         id="g30">
        <path
           id="path32"
           d=""
           inkscape:connector-curvature="0"
           style="fill:none;stroke:none" />
        <text
           font-size="13px"
           font-style="normal"
           font-weight="bold"
           text-decoration="none"
           x="263.5"
           y="91.5"
           id="text34"
           style="font-style:normal;font-weight:bold;font-size:13px;font-family:Arial;text-decoration:none;text-decoration-line:none;fill:#000000;stroke:none">_disk.update</text>
      </g>
    </g>
    <g
       transform="translate(12,2)"
       id="g36">
      <path
         d="m 288,159 39,0 q 10,0 10,10 l 0,20 q 0,10 -10,10 l -39,0 q -10,0 -10,-10 l 0,-20 q 0,-10 10,-10 z"
         id="path38"
         inkscape:connector-curvature="0"
         style="opacity:0.2;fill:#c0c0c0;stroke:none" />
    </g>
    <g
       transform="translate(12,2)"
       id="g40">
      <path
         d="m 281,152 39,0 q 10,0 10,10 l 0,20 q 0,10 -10,10 l -39,0 q -10,0 -10,-10 l 0,-20 q 0,-10 10,-10 z"
         id="path42"
         inkscape:connector-curvature="0"
         style="fill:#9ae79a;stroke:none" />
    </g>
    <g
       transform="translate(12,2)"
       id="g44">
      <path
         d="m 281,152 39,0 q 10,0 10,10 l 0,20 q 0,10 -10,10 l -39,0 q -10,0 -10,-10 l 0,-20 q 0,-10 10,-10 z"
         stroke-miterlimit="10"
         id="path46"
         inkscape:connector-curvature="0"
         style="fill:none;stroke:#000000;stroke-miterlimit:10" />
    </g>
    <g
       transform="translate(12,2)"
       id="g48">
      <g
         id="g50">
        <path
           id="path52"
           d=""
           inkscape:connector-curvature="0"
           style="fill:none;stroke:none" />
        <text
           font-size="13px"
           font-style="normal"
           font-weight="bold"
           text-decoration="none"
           x="285"
           y="171.5"
           id="text54"
           style="font-style:normal;font-weight:bold;font-size:13px;font-family:Arial;text-decoration:none;text-decoration-line:none;fill:#000000;stroke:none">delay</text>
      </g>
    </g>
    <g
       transform="translate(12,2)"
       id="g56">
      <path
         d="m 300,113 0,38"
         stroke-miterlimit="10"
         id="path58"
         inkscape:connector-curvature="0"
         style="fill:none;stroke:#000000;stroke-miterlimit:10" />
    </g>
    <g
       transform="translate(12,2)"
       id="g60">
      <path
         d="M 295.79048,140.83733 300,151 l 4.20952,-10.16267"
         stroke-miterlimit="10"
         id="path62"
         inkscape:connector-curvature="0"
         style="fill:none;stroke:#000000;stroke-miterlimit:10" />
    </g>
    <g
       transform="translate(12,2)"
       id="g64">
      <path
         d="M 296,248.5 307.5,239 318,248.5 307.5,257 296,248.5"
         id="path66"
         inkscape:connector-curvature="0"
         style="opacity:0.2;fill:#c0c0c0;stroke:none" />
    </g>
    <g
       transform="translate(12,2)"
       id="g68">
      <path
         d="m 289,241 11,-9 11,9 -11,9 -11,-9"
         id="path70"
         inkscape:connector-curvature="0"
         style="fill:#c1eac1;stroke:none" />
    </g>
    <g
       transform="translate(12,2)"
       id="g72">
      <path
         d="m 289,241 11,-9 11,9 -11,9 -11,-9 0,0"
         stroke-miterlimit="10"
         id="path74"
         inkscape:connector-curvature="0"
         style="fill:none;stroke:#000000;stroke-miterlimit:10" />
    </g>
    <g
       transform="translate(12,2)"
       id="g76">
      <path
         d="m 300,193 0,38"
         stroke-miterlimit="10"
         id="path78"
         inkscape:connector-curvature="0"
         style="fill:none;stroke:#000000;stroke-miterlimit:10" />
    </g>
    <g
       transform="translate(12,2)"
       id="g80">
      <path
         d="M 295.79048,220.83733 300,231 l 4.20952,-10.16267"
         stroke-miterlimit="10"
         id="path82"
         inkscape:connector-curvature="0"
         style="fill:none;stroke:#000000;stroke-miterlimit:10" />
    </g>
    <g
       transform="translate(12,2)"
       id="g84">
      <path
         d="m 273,295 69,0 q 10,0 10,10 l 0,20 q 0,10 -10,10 l -69,0 q -10,0 -10,-10 l 0,-20 q 0,-10 10,-10 z"
         id="path86"
         inkscape:connector-curvature="0"
         style="opacity:0.2;fill:#c0c0c0;stroke:none" />
    </g>
    <g
       transform="translate(12,2)"
       id="g88">
      <path
         d="m 266,288 69,0 q 10,0 10,10 l 0,20 q 0,10 -10,10 l -69,0 q -10,0 -10,-10 l 0,-20 q 0,-10 10,-10 z"
         id="path90"
         inkscape:connector-curvature="0"
         style="fill:#9ae79a;stroke:none" />
    </g>
    <g
       transform="translate(12,2)"
       id="g92">
      <path
         d="m 266,288 69,0 q 10,0 10,10 l 0,20 q 0,10 -10,10 l -69,0 q -10,0 -10,-10 l 0,-20 q 0,-10 10,-10 z"
         stroke-miterlimit="10"
         id="path94"
         inkscape:connector-curvature="0"
         style="fill:none;stroke:#000000;stroke-miterlimit:10" />
    </g>
    <g
       transform="translate(12,2)"
       id="g96">
      <g
         id="g98">
        <path
           id="path100"
           d=""
           inkscape:connector-curvature="0"
           style="fill:none;stroke:none" />
        <text
           font-size="13px"
           font-style="normal"
           font-weight="bold"
           text-decoration="none"
           x="263.5"
           y="307.5"
           id="text102"
           style="font-style:normal;font-weight:bold;font-size:13px;font-family:Arial;text-decoration:none;text-decoration-line:none;fill:#000000;stroke:none">_disk.update</text>
      </g>
    </g>
    <g
       transform="translate(12,2)"
       id="g104">
      <path
         d="m 300,251 0,36"
         stroke-miterlimit="10"
         id="path106"
         inkscape:connector-curvature="0"
         style="fill:none;stroke:#000000;stroke-miterlimit:10" />
    </g>
    <g
       transform="translate(12,2)"
       id="g108">
      <path
         d="M 295.79048,276.83733 300,287 l 4.20952,-10.16267"
         stroke-miterlimit="10"
         id="path110"
         inkscape:connector-curvature="0"
         style="fill:none;stroke:#000000;stroke-miterlimit:10" />
    </g>
    <g
       transform="translate(12,2)"
       id="g112">
      <g
         id="g114">
        <path
           id="path116"
           d=""
           inkscape:connector-curvature="0"
           style="fill:none;stroke:none" />
        <text
           font-size="13px"
           font-style="normal"
           font-weight="normal"
           text-decoration="none"
           x="255"
           y="274"
           id="text118"
           style="font-style:normal;font-weight:normal;font-size:13px;font-family:Arial;text-decoration:none;text-decoration-line:none;fill:#000000;stroke:none">[else]</text>
      </g>
    </g>
    <g
       transform="translate(12,2)"
       id="g120">
      <path
         d="M 288,232 Q 216,176 279,113"
         stroke-miterlimit="10"
         id="path122"
         inkscape:connector-curvature="0"
         style="fill:none;stroke:#000000;stroke-miterlimit:10" />
    </g>
    <g
       transform="translate(12,2)"
       id="g124">
      <path
         d="M 274.79048,123.16267 279,113 l -10.16267,4.20952"
         stroke-miterlimit="10"
         id="path126"
         inkscape:connector-curvature="0"
         style="fill:none;stroke:#000000;stroke-miterlimit:10" />
    </g>
    <g
       transform="translate(12,2)"
       id="g128">
      <g
         id="g130">
        <path
           id="path132"
           d=""
           inkscape:connector-curvature="0"
           style="fill:none;stroke:none" />
        <text
           font-size="13px"
           font-style="normal"
           font-weight="normal"
           text-decoration="none"
           x="-2"
           y="181"
           id="text134"
           style="font-style:normal;font-weight:normal;font-size:13px;font-family:Arial;text-decoration:none;text-decoration-line:none;fill:#000000;stroke:none">[_trigger-&gt;read() != Sensor::Value::ZERO]</text>
      </g>
    </g>
    <g
       transform="translate(12,2)"
       id="g136">
      <path
         d="m 288,383 39,0 q 10,0 10,10 l 0,20 q 0,10 -10,10 l -39,0 q -10,0 -10,-10 l 0,-20 q 0,-10 10,-10 z"
         id="path138"
         inkscape:connector-curvature="0"
         style="opacity:0.2;fill:#c0c0c0;stroke:none" />
    </g>
    <g
       transform="translate(12,2)"
       id="g140">
      <path
         d="m 281,376 39,0 q 10,0 10,10 l 0,20 q 0,10 -10,10 l -39,0 q -10,0 -10,-10 l 0,-20 q 0,-10 10,-10 z"
         id="path142"
         inkscape:connector-curvature="0"
         style="fill:#9ae79a;stroke:none" />
    </g>
    <g
       transform="translate(12,2)"
       id="g144">
      <path
         d="m 281,376 39,0 q 10,0 10,10 l 0,20 q 0,10 -10,10 l -39,0 q -10,0 -10,-10 l 0,-20 q 0,-10 10,-10 z"
         stroke-miterlimit="10"
         id="path146"
         inkscape:connector-curvature="0"
         style="fill:none;stroke:#000000;stroke-miterlimit:10" />
    </g>
    <g
       transform="translate(12,2)"
       id="g148">
      <g
         id="g150">
        <path
           id="path152"
           d=""
           inkscape:connector-curvature="0"
           style="fill:none;stroke:none" />
        <text
           font-size="13px"
           font-style="normal"
           font-weight="bold"
           text-decoration="none"
           x="285"
           y="395.5"
           id="text154"
           style="font-style:normal;font-weight:bold;font-size:13px;font-family:Arial;text-decoration:none;text-decoration-line:none;fill:#000000;stroke:none">delay</text>
      </g>
    </g>
    <g
       transform="translate(12,2)"
       id="g156">
      <path
         d="m 300,329 0,46"
         stroke-miterlimit="10"
         id="path158"
         inkscape:connector-curvature="0"
         style="fill:none;stroke:#000000;stroke-miterlimit:10" />
    </g>
    <g
       transform="translate(12,2)"
       id="g160">
      <path
         d="M 295.79048,364.83733 300,375 l 4.20952,-10.16267"
         stroke-miterlimit="10"
         id="path162"
         inkscape:connector-curvature="0"
         style="fill:none;stroke:#000000;stroke-miterlimit:10" />
    </g>
    <g
       transform="translate(12,2)"
       id="g164">
      <path
         d="M 296,472.5 307.5,463 318,472.5 307.5,481 296,472.5"
         id="path166"
         inkscape:connector-curvature="0"
         style="opacity:0.2;fill:#c0c0c0;stroke:none" />
    </g>
    <g
       transform="translate(12,2)"
       id="g168">
      <path
         d="m 289,465 11,-9 11,9 -11,9 -11,-9"
         id="path170"
         inkscape:connector-curvature="0"
         style="fill:#c1eac1;stroke:none" />
    </g>
    <g
       transform="translate(12,2)"
       id="g172">
      <path
         d="m 289,465 11,-9 11,9 -11,9 -11,-9 0,0"
         stroke-miterlimit="10"
         id="path174"
         inkscape:connector-curvature="0"
         style="fill:none;stroke:#000000;stroke-miterlimit:10" />
    </g>
    <g
       transform="translate(12,2)"
       id="g176">
      <path
         d="m 300,417 0,38"
         stroke-miterlimit="10"
         id="path178"
         inkscape:connector-curvature="0"
         style="fill:none;stroke:#000000;stroke-miterlimit:10" />
    </g>
    <g
       transform="translate(12,2)"
       id="g180">
      <path
         d="M 295.79048,444.83733 300,455 l 4.20952,-10.16267"
         stroke-miterlimit="10"
         id="path182"
         inkscape:connector-curvature="0"
         style="fill:none;stroke:#000000;stroke-miterlimit:10" />
    </g>
    <g
       transform="translate(12,2)"
       id="g184">
      <path
         d="m 273,511 69,0 q 10,0 10,10 l 0,20 q 0,10 -10,10 l -69,0 q -10,0 -10,-10 l 0,-20 q 0,-10 10,-10 z"
         id="path186"
         inkscape:connector-curvature="0"
         style="opacity:0.2;fill:#c0c0c0;stroke:none" />
    </g>
    <g
       transform="translate(12,2)"
       id="g188">
      <path
         d="m 266,504 69,0 q 10,0 10,10 l 0,20 q 0,10 -10,10 l -69,0 q -10,0 -10,-10 l 0,-20 q 0,-10 10,-10 z"
         id="path190"
         inkscape:connector-curvature="0"
         style="fill:#9ae79a;stroke:none" />
    </g>
    <g
       transform="translate(12,2)"
       id="g192">
      <path
         d="m 266,504 69,0 q 10,0 10,10 l 0,20 q 0,10 -10,10 l -69,0 q -10,0 -10,-10 l 0,-20 q 0,-10 10,-10 z"
         stroke-miterlimit="10"
         id="path194"
         inkscape:connector-curvature="0"
         style="fill:none;stroke:#000000;stroke-miterlimit:10" />
    </g>
    <g
       transform="translate(12,2)"
       id="g196">
      <g
         id="g198">
        <path
           id="path200"
           d=""
           inkscape:connector-curvature="0"
           style="fill:none;stroke:none" />
        <text
           font-size="13px"
           font-style="normal"
           font-weight="bold"
           text-decoration="none"
           x="263.5"
           y="523.5"
           id="text202"
           style="font-style:normal;font-weight:bold;font-size:13px;font-family:Arial;text-decoration:none;text-decoration-line:none;fill:#000000;stroke:none">_disk.update</text>
      </g>
    </g>
    <g
       transform="translate(12,2)"
       id="g204">
      <path
         d="m 300,475 0,28"
         stroke-miterlimit="10"
         id="path206"
         inkscape:connector-curvature="0"
         style="fill:none;stroke:#000000;stroke-miterlimit:10" />
    </g>
    <g
       transform="translate(12,2)"
       id="g208">
      <path
         d="M 295.79048,492.83733 300,503 l 4.20952,-10.16267"
         stroke-miterlimit="10"
         id="path210"
         inkscape:connector-curvature="0"
         style="fill:none;stroke:#000000;stroke-miterlimit:10" />
    </g>
    <g
       transform="translate(12,2)"
       id="g212">
      <g
         id="g214">
        <path
           id="path216"
           d=""
           inkscape:connector-curvature="0"
           style="fill:none;stroke:none" />
        <text
           font-size="13px"
           font-style="normal"
           font-weight="normal"
           text-decoration="none"
           x="255"
           y="494"
           id="text218"
           style="font-style:normal;font-weight:normal;font-size:13px;font-family:Arial;text-decoration:none;text-decoration-line:none;fill:#000000;stroke:none">[else]</text>
      </g>
    </g>
    <g
       transform="translate(12,2)"
       id="g220">
      <path
         d="M 288,456 Q 216,400 281,329"
         stroke-miterlimit="10"
         id="path222"
         inkscape:connector-curvature="0"
         style="fill:none;stroke:#000000;stroke-miterlimit:10" />
    </g>
    <g
       transform="translate(12,2)"
       id="g224">
      <path
         d="M 277.24249,339.33833 281,329 l -9.96727,4.65334"
         stroke-miterlimit="10"
         id="path226"
         inkscape:connector-curvature="0"
         style="fill:none;stroke:#000000;stroke-miterlimit:10" />
    </g>
    <g
       transform="translate(12,2)"
       id="g228">
      <g
         id="g230">
        <path
           id="path232"
           d=""
           inkscape:connector-curvature="0"
           style="fill:none;stroke:none" />
        <text
           font-size="13px"
           font-style="normal"
           font-weight="normal"
           text-decoration="none"
           x="7"
           y="405"
           id="text234"
           style="font-style:normal;font-weight:normal;font-size:13px;font-family:Arial;text-decoration:none;text-decoration-line:none;fill:#000000;stroke:none">[_trigger-&gt;read() != Sensor::Value::ONE]</text>
      </g>
    </g>
    <g
       transform="translate(12,2)"
       id="g236">
      <path
         d="M 463,496.5 474.5,487 485,496.5 474.5,505 463,496.5"
         id="path238"
         inkscape:connector-curvature="0"
         style="opacity:0.2;fill:#c0c0c0;stroke:none" />
    </g>
    <g
       transform="translate(12,2)"
       id="g240">
      <path
         d="m 456,489 11,-9 11,9 -11,9 -11,-9"
         id="path242"
         inkscape:connector-curvature="0"
         style="fill:#c1eac1;stroke:none" />
    </g>
    <g
       transform="translate(12,2)"
       id="g244">
      <path
         d="m 456,489 11,-9 11,9 -11,9 -11,-9 0,0"
         stroke-miterlimit="10"
         id="path246"
         inkscape:connector-curvature="0"
         style="fill:none;stroke:#000000;stroke-miterlimit:10" />
    </g>
    <g
       transform="translate(12,2)"
       id="g248">
      <path
         d="m 344,503 q 48,-23 111,-15"
         stroke-miterlimit="10"
         id="path250"
         inkscape:connector-curvature="0"
         style="fill:none;stroke:#000000;stroke-miterlimit:10" />
    </g>
    <g
       transform="translate(12,2)"
       id="g252">
      <path
         d="M 444.388,490.89577 455,488 l -9.55143,-5.4562"
         stroke-miterlimit="10"
         id="path254"
         inkscape:connector-curvature="0"
         style="fill:none;stroke:#000000;stroke-miterlimit:10" />
    </g>
    <g
       transform="translate(12,2)"
       id="g256">
      <path
         d="m 393,383 163,0 q 10,0 10,10 l 0,20 q 0,10 -10,10 l -163,0 q -10,0 -10,-10 l 0,-20 q 0,-10 10,-10 z"
         id="path258"
         inkscape:connector-curvature="0"
         style="opacity:0.2;fill:#c0c0c0;stroke:none" />
    </g>
    <g
       transform="translate(12,2)"
       id="g260">
      <path
         d="m 386,376 163,0 q 10,0 10,10 l 0,20 q 0,10 -10,10 l -163,0 q -10,0 -10,-10 l 0,-20 q 0,-10 10,-10 z"
         id="path262"
         inkscape:connector-curvature="0"
         style="fill:#9ae79a;stroke:none" />
    </g>
    <g
       transform="translate(12,2)"
       id="g264">
      <path
         d="m 386,376 163,0 q 10,0 10,10 l 0,20 q 0,10 -10,10 l -163,0 q -10,0 -10,-10 l 0,-20 q 0,-10 10,-10 z"
         stroke-miterlimit="10"
         id="path266"
         inkscape:connector-curvature="0"
         style="fill:none;stroke:#000000;stroke-miterlimit:10" />
    </g>
    <g
       transform="translate(12,2)"
       id="g268">
      <g
         id="g270">
        <path
           id="path272"
           d=""
           inkscape:connector-curvature="0"
           style="fill:none;stroke:none" />
        <text
           font-size="13px"
           font-style="normal"
           font-weight="bold"
           text-decoration="none"
           x="388.5"
           y="395.5"
           id="text274"
           style="font-style:normal;font-weight:bold;font-size:13px;font-family:Arial;text-decoration:none;text-decoration-line:none;fill:#000000;stroke:none">calculate NextReleaseTime</text>
      </g>
    </g>
    <g
       transform="translate(12,2)"
       id="g276">
      <path
         d="m 467,479 0,-62"
         stroke-miterlimit="10"
         id="path278"
         inkscape:connector-curvature="0"
         style="fill:none;stroke:#000000;stroke-miterlimit:10" />
    </g>
    <g
       transform="translate(12,2)"
       id="g280">
      <path
         d="M 471.20952,427.16267 467,417 l -4.20952,10.16267"
         stroke-miterlimit="10"
         id="path282"
         inkscape:connector-curvature="0"
         style="fill:none;stroke:#000000;stroke-miterlimit:10" />
    </g>
    <g
       transform="translate(12,2)"
       id="g284">
      <g
         id="g286">
        <path
           id="path288"
           d=""
           inkscape:connector-curvature="0"
           style="fill:none;stroke:none" />
        <text
           font-size="13px"
           font-style="normal"
           font-weight="normal"
           text-decoration="none"
           x="471"
           y="460"
           id="text290"
           style="font-style:normal;font-weight:normal;font-size:13px;font-family:Arial;text-decoration:none;text-decoration-line:none;fill:#000000;stroke:none">[_disk.isStable()]</text>
      </g>
    </g>
    <g
       transform="translate(12,2)"
       id="g292">
      <path
         d="m 401,551 39,0 q 10,0 10,10 l 0,20 q 0,10 -10,10 l -39,0 q -10,0 -10,-10 l 0,-20 q 0,-10 10,-10 z"
         id="path294"
         inkscape:connector-curvature="0"
         style="opacity:0.2;fill:#c0c0c0;stroke:none" />
    </g>
    <g
       transform="translate(12,2)"
       id="g296">
      <path
         d="m 394,544 39,0 q 10,0 10,10 l 0,20 q 0,10 -10,10 l -39,0 q -10,0 -10,-10 l 0,-20 q 0,-10 10,-10 z"
         id="path298"
         inkscape:connector-curvature="0"
         style="fill:#9ae79a;stroke:none" />
    </g>
    <g
       transform="translate(12,2)"
       id="g300">
      <path
         d="m 394,544 39,0 q 10,0 10,10 l 0,20 q 0,10 -10,10 l -39,0 q -10,0 -10,-10 l 0,-20 q 0,-10 10,-10 z"
         stroke-miterlimit="10"
         id="path302"
         inkscape:connector-curvature="0"
         style="fill:none;stroke:#000000;stroke-miterlimit:10" />
    </g>
    <g
       transform="translate(12,2)"
       id="g304">
      <g
         id="g306">
        <path
           id="path308"
           d=""
           inkscape:connector-curvature="0"
           style="fill:none;stroke:none" />
        <text
           font-size="13px"
           font-style="normal"
           font-weight="bold"
           text-decoration="none"
           x="398"
           y="563.5"
           id="text310"
           style="font-style:normal;font-weight:bold;font-size:13px;font-family:Arial;text-decoration:none;text-decoration-line:none;fill:#000000;stroke:none">delay</text>
      </g>
    </g>
    <g
       transform="translate(12,2)"
       id="g312">
      <path
         d="m 463,499 q -7,21 -29,44"
         stroke-miterlimit="10"
         id="path314"
         inkscape:connector-curvature="0"
         style="fill:none;stroke:#000000;stroke-miterlimit:10" />
    </g>
    <g
       transform="translate(12,2)"
       id="g316">
      <path
         d="M 437.9827,532.74631 434,543 l 10.06664,-4.43426"
         stroke-miterlimit="10"
         id="path318"
         inkscape:connector-curvature="0"
         style="fill:none;stroke:#000000;stroke-miterlimit:10" />
    </g>
    <g
       transform="translate(12,2)"
       id="g320">
      <g
         id="g322">
        <path
           id="path324"
           d=""
           inkscape:connector-curvature="0"
           style="fill:none;stroke:none" />
        <text
           font-size="13px"
           font-style="normal"
           font-weight="normal"
           text-decoration="none"
           x="450"
           y="537"
           id="text326"
           style="font-style:normal;font-weight:normal;font-size:13px;font-family:Arial;text-decoration:none;text-decoration-line:none;fill:#000000;stroke:none">[else]</text>
      </g>
    </g>
    <g
       transform="translate(12,2)"
       id="g328">
      <path
         d="M 383,553 346,540"
         stroke-miterlimit="10"
         id="path330"
         inkscape:connector-curvature="0"
         style="fill:none;stroke:#000000;stroke-miterlimit:10" />
    </g>
    <g
       transform="translate(12,2)"
       id="g332">
      <path
         d="M 356.98347,539.39727 346,540 l 8.19268,7.3403"
         stroke-miterlimit="10"
         id="path334"
         inkscape:connector-curvature="0"
         style="fill:none;stroke:#000000;stroke-miterlimit:10" />
    </g>
    <g
       transform="translate(12,2)"
       id="g336">
      <path
         d="m 407,295 134,0 q 10,0 10,10 l 0,20 q 0,10 -10,10 l -134,0 q -10,0 -10,-10 l 0,-20 q 0,-10 10,-10 z"
         id="path338"
         inkscape:connector-curvature="0"
         style="opacity:0.2;fill:#c0c0c0;stroke:none" />
    </g>
    <g
       transform="translate(12,2)"
       id="g340">
      <path
         d="m 400,288 134,0 q 10,0 10,10 l 0,20 q 0,10 -10,10 l -134,0 q -10,0 -10,-10 l 0,-20 q 0,-10 10,-10 z"
         id="path342"
         inkscape:connector-curvature="0"
         style="fill:#9ae79a;stroke:none" />
    </g>
    <g
       transform="translate(12,2)"
       id="g344">
      <path
         d="m 400,288 134,0 q 10,0 10,10 l 0,20 q 0,10 -10,10 l -134,0 q -10,0 -10,-10 l 0,-20 q 0,-10 10,-10 z"
         stroke-miterlimit="10"
         id="path346"
         inkscape:connector-curvature="0"
         style="fill:none;stroke:#000000;stroke-miterlimit:10" />
    </g>
    <g
       transform="translate(12,2)"
       id="g348">
      <g
         id="g350">
        <path
           id="path352"
           d=""
           inkscape:connector-curvature="0"
           style="fill:none;stroke:none" />
        <text
           font-size="13px"
           font-style="normal"
           font-weight="bold"
           text-decoration="none"
           x="404"
           y="307.5"
           id="text354"
           style="font-style:normal;font-weight:bold;font-size:13px;font-family:Arial;text-decoration:none;text-decoration-line:none;fill:#000000;stroke:none">calculate CurrentTime</text>
      </g>
    </g>
    <g
       transform="translate(12,2)"
       id="g356">
      <path
         d="m 467,375 0,-46"
         stroke-miterlimit="10"
         id="path358"
         inkscape:connector-curvature="0"
         style="fill:none;stroke:#000000;stroke-miterlimit:10" />
    </g>
    <g
       transform="translate(12,2)"
       id="g360">
      <path
         d="M 471.20952,339.16267 467,329 l -4.20952,10.16267"
         stroke-miterlimit="10"
         id="path362"
         inkscape:connector-curvature="0"
         style="fill:none;stroke:#000000;stroke-miterlimit:10" />
    </g>
    <g
       transform="translate(12,2)"
       id="g364">
      <path
         d="M 463,216.5 474.5,207 485,216.5 474.5,225 463,216.5"
         id="path366"
         inkscape:connector-curvature="0"
         style="opacity:0.2;fill:#c0c0c0;stroke:none" />
    </g>
    <g
       transform="translate(12,2)"
       id="g368">
      <path
         d="m 456,209 11,-9 11,9 -11,9 -11,-9"
         id="path370"
         inkscape:connector-curvature="0"
         style="fill:#c1eac1;stroke:none" />
    </g>
    <g
       transform="translate(12,2)"
       id="g372">
      <path
         d="m 456,209 11,-9 11,9 -11,9 -11,-9 0,0"
         stroke-miterlimit="10"
         id="path374"
         inkscape:connector-curvature="0"
         style="fill:none;stroke:#000000;stroke-miterlimit:10" />
    </g>
    <g
       transform="translate(12,2)"
       id="g376">
      <path
         d="m 467,287 0,-68"
         stroke-miterlimit="10"
         id="path378"
         inkscape:connector-curvature="0"
         style="fill:none;stroke:#000000;stroke-miterlimit:10" />
    </g>
    <g
       transform="translate(12,2)"
       id="g380">
      <path
         d="M 471.20952,229.16267 467,219 l -4.20952,10.16267"
         stroke-miterlimit="10"
         id="path382"
         inkscape:connector-curvature="0"
         style="fill:none;stroke:#000000;stroke-miterlimit:10" />
    </g>
    <g
       transform="translate(12,2)"
       id="g384">
      <path
         d="m 422,79 105,0 q 10,0 10,10 l 0,20 q 0,10 -10,10 l -105,0 q -10,0 -10,-10 l 0,-20 q 0,-10 10,-10 z"
         id="path386"
         inkscape:connector-curvature="0"
         style="opacity:0.2;fill:#c0c0c0;stroke:none" />
    </g>
    <g
       transform="translate(12,2)"
       id="g388">
      <path
         d="m 415,72 105,0 q 10,0 10,10 l 0,20 q 0,10 -10,10 l -105,0 q -10,0 -10,-10 l 0,-20 q 0,-10 10,-10 z"
         id="path390"
         inkscape:connector-curvature="0"
         style="fill:#9ae79a;stroke:none" />
    </g>
    <g
       transform="translate(12,2)"
       id="g392">
      <path
         d="m 415,72 105,0 q 10,0 10,10 l 0,20 q 0,10 -10,10 l -105,0 q -10,0 -10,-10 l 0,-20 q 0,-10 10,-10 z"
         stroke-miterlimit="10"
         id="path394"
         inkscape:connector-curvature="0"
         style="fill:none;stroke:#000000;stroke-miterlimit:10" />
    </g>
    <g
       transform="translate(12,2)"
       id="g396">
      <g
         id="g398">
        <path
           id="path400"
           d=""
           inkscape:connector-curvature="0"
           style="fill:none;stroke:none" />
        <text
           font-size="13px"
           font-style="normal"
           font-weight="bold"
           text-decoration="none"
           x="415.5"
           y="91.5"
           id="text402"
           style="font-style:normal;font-weight:bold;font-size:13px;font-family:Arial;text-decoration:none;text-decoration-line:none;fill:#000000;stroke:none">releaseTheKraken</text>
      </g>
    </g>
    <g
       transform="translate(12,2)"
       id="g404">
      <path
         d="m 467,199 0,-86"
         stroke-miterlimit="10"
         id="path406"
         inkscape:connector-curvature="0"
         style="fill:none;stroke:#000000;stroke-miterlimit:10" />
    </g>
    <g
       transform="translate(12,2)"
       id="g408">
      <path
         d="M 471.20952,123.16267 467,113 l -4.20952,10.16267"
         stroke-miterlimit="10"
         id="path410"
         inkscape:connector-curvature="0"
         style="fill:none;stroke:#000000;stroke-miterlimit:10" />
    </g>
    <g
       transform="translate(12,2)"
       id="g412">
      <g
         id="g414">
        <path
           id="path416"
           d=""
           inkscape:connector-curvature="0"
           style="fill:none;stroke:none" />
        <text
           font-size="13px"
           font-style="normal"
           font-weight="normal"
           text-decoration="none"
           x="479.1521"
           y="156"
           id="text418"
           style="font-style:normal;font-weight:normal;font-size:13px;font-family:Arial;text-decoration:none;text-decoration-line:none;fill:#000000;stroke:none">[currentTime &gt;= nextReleaseTime - 0.5 * _pollInterval</text>
        <text
           style="font-style:normal;font-weight:normal;font-size:13px;font-family:Arial;text-decoration:none;text-decoration-line:none;fill:#000000;stroke:none"
           id="text4588"
           y="170"
           x="619.60986"
           text-decoration="none"
           font-weight="normal"
           font-style="normal"
           font-size="13px">AND</text>
        <text
           font-size="13px"
           font-style="normal"
           font-weight="normal"
           text-decoration="none"
           x="477.73657"
           y="184"
           id="text4590"
           style="font-style:normal;font-weight:normal;font-size:13px;font-family:Arial;text-decoration:none;text-decoration-line:none;fill:#000000;stroke:none">currentTime &lt;= nextReleaseTime + 0.5 * _pollInterval]</text>
      </g>
    </g>
    <g
       transform="translate(12,2)"
       id="g420">
      <path
         d="m 300,28 0,43"
         stroke-miterlimit="10"
         id="path422"
         inkscape:connector-curvature="0"
         style="fill:none;stroke:#000000;stroke-miterlimit:10" />
    </g>
    <g
       transform="translate(12,2)"
       id="g424">
      <path
         d="M 295.79048,60.837325 300,71 304.20952,60.837325"
         stroke-miterlimit="10"
         id="path426"
         inkscape:connector-curvature="0"
         style="fill:none;stroke:#000000;stroke-miterlimit:10" />
    </g>
    <g
       transform="translate(12,2)"
       id="g428">
      <path
         d="m 404,92 -58,0"
         stroke-miterlimit="10"
         id="path430"
         inkscape:connector-curvature="0"
         style="fill:none;stroke:#000000;stroke-miterlimit:10" />
    </g>
    <g
       transform="translate(12,2)"
       id="g432">
      <path
         d="M 356.16267,87.790482 346,92 l 10.16267,4.209518"
         stroke-miterlimit="10"
         id="path434"
         inkscape:connector-curvature="0"
         style="fill:none;stroke:#000000;stroke-miterlimit:10" />
    </g>
    <g
       transform="translate(12,2)"
       id="g436">
      <path
         d="m 479,215 q 169,81 26,160"
         stroke-miterlimit="10"
         id="path438"
         inkscape:connector-curvature="0"
         style="fill:none;stroke:#000000;stroke-miterlimit:10" />
    </g>
    <g
       transform="translate(12,2)"
       id="g440">
      <path
         d="M 511.85992,366.40108 505,375 l 10.93105,-1.22966"
         stroke-miterlimit="10"
         id="path442"
         inkscape:connector-curvature="0"
         style="fill:none;stroke:#000000;stroke-miterlimit:10" />
    </g>
    <g
       transform="translate(12,2)"
       id="g444">
      <g
         id="g446">
        <path
           id="path448"
           d=""
           inkscape:connector-curvature="0"
           style="fill:none;stroke:none" />
        <text
           font-size="13px"
           font-style="normal"
           font-weight="normal"
           text-decoration="none"
           x="551"
           y="260"
           id="text450"
           style="font-style:normal;font-weight:normal;font-size:13px;font-family:Arial;text-decoration:none;text-decoration-line:none;fill:#000000;stroke:none">[else]</text>
      </g>
    </g>
  </g>
</svg>
