<?xml version="1.0" encoding="UTF-8" standalone="no"?>
<svg
   xmlns:dc="http://purl.org/dc/elements/1.1/"
   xmlns:cc="http://creativecommons.org/ns#"
   xmlns:rdf="http://www.w3.org/1999/02/22-rdf-syntax-ns#"
   xmlns:svg="http://www.w3.org/2000/svg"
   xmlns="http://www.w3.org/2000/svg"
   id="svg2"
   height="476"
   width="820"
   version="1.1">
  <metadata
     id="metadata622">
    <rdf:RDF>
      <cc:Work
         rdf:about="">
        <dc:format>image/svg+xml</dc:format>
        <dc:type
           rdf:resource="http://purl.org/dc/dcmitype/StillImage" />
        <dc:title></dc:title>
      </cc:Work>
    </rdf:RDF>
  </metadata>
  <defs
     id="defs4" />
  <g
     id="g6">
    <g
       id="g8"
       transform="translate(-6,-6)">
      <path
         style="opacity:0.2;fill:#c0c0c0;stroke:none"
         id="path10"
         d="m 289,32.5 c 0,-5.246706 4.25329,-9.5 9.5,-9.5 5.24671,0 9.5,4.253294 9.5,9.5 0,5.246706 -4.25329,9.5 -9.5,9.5 -5.24671,0 -9.5,-4.253294 -9.5,-9.5 z" />
    </g>
    <g
       id="g12"
       transform="translate(-6,-6)">
      <path
         style="fill:#000000;stroke:none"
         id="path14"
         d="m 282,25.5 c 0,-5.246706 4.25329,-9.5 9.5,-9.5 5.24671,0 9.5,4.253294 9.5,9.5 0,5.246706 -4.25329,9.5 -9.5,9.5 -5.24671,0 -9.5,-4.253294 -9.5,-9.5 z" />
    </g>
    <g
       id="g16"
       transform="translate(-6,-6)">
      <path
         style="opacity:0.2;fill:#c0c0c0;stroke:none"
         id="path18"
         d="m 264,61 69,0 q 10,0 10,10 l 0,60 q 0,10 -10,10 l -69,0 q -10,0 -10,-10 l 0,-60 q 0,-10 10,-10 z" />
    </g>
    <g
       id="g20"
       transform="translate(-6,-6)">
      <path
         style="fill:#adc8ff;stroke:none"
         id="path22"
         d="m 257,54 69,0 q 10,0 10,10 l 0,60 q 0,10 -10,10 l -69,0 q -10,0 -10,-10 l 0,-60 q 0,-10 10,-10 z" />
    </g>
    <g
       id="g24"
       transform="translate(-6,-6)">
      <path
         style="fill:none;stroke:#000000;stroke-miterlimit:10"
         id="path26"
         stroke-miterlimit="10"
         d="m 257,54 69,0 q 10,0 10,10 l 0,60 q 0,10 -10,10 l -69,0 q -10,0 -10,-10 l 0,-60 q 0,-10 10,-10 z" />
    </g>
    <g
       id="g28"
       transform="translate(-6,-6)">
      <g
         id="g30">
        <path
           style="fill:none;stroke:none"
           d=""
           id="path32" />
        <text
           style="font-style:normal;font-weight:bold;font-size:13px;font-family:Arial;text-decoration:none;text-decoration-line:none;fill:#000000;stroke:none"
           id="text34"
           y="73.5"
           x="272"
           text-decoration="none"
           font-weight="bold"
           font-style="normal"
           font-size="13px">update</text>
      </g>
    </g>
    <g
       id="g36"
       transform="translate(-6,-6)">
      <path
         style="opacity:0.2;fill:#c0c0c0;stroke:none"
         id="path38"
         d="m 279,167 39,0 q 10,0 10,10 l 0,20 q 0,10 -10,10 l -39,0 q -10,0 -10,-10 l 0,-20 q 0,-10 10,-10 z" />
    </g>
    <g
       id="g40"
       transform="translate(-6,-6)">
      <path
         style="fill:#adc8ff;stroke:none"
         id="path42"
         d="m 272,160 39,0 q 10,0 10,10 l 0,20 q 0,10 -10,10 l -39,0 q -10,0 -10,-10 l 0,-20 q 0,-10 10,-10 z" />
    </g>
    <g
       id="g44"
       transform="translate(-6,-6)">
      <path
         style="fill:none;stroke:#000000;stroke-miterlimit:10"
         id="path46"
         stroke-miterlimit="10"
         d="m 272,160 39,0 q 10,0 10,10 l 0,20 q 0,10 -10,10 l -39,0 q -10,0 -10,-10 l 0,-20 q 0,-10 10,-10 z" />
    </g>
    <g
       id="g48"
       transform="translate(-6,-6)">
      <g
         id="g50">
        <path
           style="fill:none;stroke:none"
           d=""
           id="path52" />
        <text
           style="font-style:normal;font-weight:bold;font-size:13px;font-family:Arial;text-decoration:none;text-decoration-line:none;fill:#000000;stroke:none"
           id="text54"
           y="179.5"
           x="276"
           text-decoration="none"
           font-weight="bold"
           font-style="normal"
           font-size="13px">delay</text>
      </g>
    </g>
    <g
       id="g56"
       transform="translate(-6,-6)">
      <path
         style="fill:none;stroke:#000000;stroke-miterlimit:10"
         id="path58"
         stroke-miterlimit="10"
         d="m 291,135 0,24" />
    </g>
    <g
       id="g60"
       transform="translate(-6,-6)">
      <path
         style="fill:none;stroke:#000000;stroke-miterlimit:10"
         id="path62"
         stroke-miterlimit="10"
         d="M 286.79048,148.83733 291,159 l 4.20952,-10.16267" />
    </g>
    <g
       id="g64"
       transform="translate(-6,-6)">
      <path
         style="opacity:0.2;fill:#c0c0c0;stroke:none"
         id="path66"
         d="M 287,248.5 298.5,239 309,248.5 298.5,257 287,248.5" />
    </g>
    <g
       id="g68"
       transform="translate(-6,-6)">
      <path
         style="fill:#ffc082;stroke:none"
         id="path70"
         d="m 280,241 11,-9 11,9 -11,9 -11,-9" />
    </g>
    <g
       id="g72"
       transform="translate(-6,-6)">
      <path
         style="fill:none;stroke:#000000;stroke-miterlimit:10"
         id="path74"
         stroke-miterlimit="10"
         d="m 280,241 11,-9 11,9 -11,9 -11,-9 0,0" />
    </g>
    <g
       id="g76"
       transform="translate(-6,-6)">
      <path
         style="fill:none;stroke:#000000;stroke-miterlimit:10"
         id="path78"
         stroke-miterlimit="10"
         d="m 291,201 0,30" />
    </g>
    <g
       id="g80"
       transform="translate(-6,-6)">
      <path
         style="fill:none;stroke:#000000;stroke-miterlimit:10"
         id="path82"
         stroke-miterlimit="10"
         d="M 286.79048,220.83733 291,231 l 4.20952,-10.16267" />
    </g>
    <g
       id="g84"
       transform="translate(-6,-6)">
      <path
         style="opacity:0.2;fill:#c0c0c0;stroke:none"
         id="path86"
         d="m 264,292 69,0 q 10,0 10,10 l 0,47 q 0,10 -10,10 l -69,0 q -10,0 -10,-10 l 0,-47 q 0,-10 10,-10 z" />
    </g>
    <g
       id="g88"
       transform="translate(-6,-6)">
      <path
         style="fill:#adc8ff;stroke:none"
         id="path90"
         d="m 257,285 69,0 q 10,0 10,10 l 0,47 q 0,10 -10,10 l -69,0 q -10,0 -10,-10 l 0,-47 q 0,-10 10,-10 z" />
    </g>
    <g
       id="g92"
       transform="translate(-6,-6)">
      <path
         style="fill:none;stroke:#000000;stroke-miterlimit:10"
         id="path94"
         stroke-miterlimit="10"
         d="m 257,285 69,0 q 10,0 10,10 l 0,47 q 0,10 -10,10 l -69,0 q -10,0 -10,-10 l 0,-47 q 0,-10 10,-10 z" />
    </g>
    <g
       id="g96"
       transform="translate(-6,-6)">
      <g
         id="g98">
        <path
           style="fill:none;stroke:none"
           d=""
           id="path100" />
        <text
           style="font-style:normal;font-weight:bold;font-size:13px;font-family:Arial;text-decoration:none;text-decoration-line:none;fill:#000000;stroke:none"
           id="text102"
           y="304.5"
           x="272"
           text-decoration="none"
           font-weight="bold"
           font-style="normal"
           font-size="13px">update</text>
      </g>
    </g>
    <g
       id="g104"
       transform="translate(-6,-6)">
      <path
         style="fill:none;stroke:#000000;stroke-miterlimit:10"
         id="path106"
         stroke-miterlimit="10"
         d="m 291,251 0,33" />
    </g>
    <g
       id="g108"
       transform="translate(-6,-6)">
      <path
         style="fill:none;stroke:#000000;stroke-miterlimit:10"
         id="path110"
         stroke-miterlimit="10"
         d="M 286.79048,273.83733 291,284 l 4.20952,-10.16267" />
    </g>
    <g
       id="g112"
       transform="translate(-6,-6)">
      <g
         id="g114">
        <path
           style="fill:none;stroke:none"
           d=""
           id="path116" />
        <text
           style="font-style:normal;font-weight:normal;font-size:13px;font-family:Arial;text-decoration:none;text-decoration-line:none;fill:#000000;stroke:none"
           id="text118"
           y="265"
           x="167"
           text-decoration="none"
           font-weight="normal"
           font-style="normal"
           font-size="13px">[_triggerCount &gt; 0]</text>
      </g>
    </g>
    <g
       id="g120"
       transform="translate(-6,-6)">
      <path
         style="fill:none;stroke:#000000;stroke-miterlimit:10"
         id="path122"
         stroke-miterlimit="10"
         d="M 279,233 Q 202,184 250,135" />
    </g>
    <g
       id="g124"
       transform="translate(-6,-6)">
      <path
         style="fill:none;stroke:#000000;stroke-miterlimit:10"
         id="path126"
         stroke-miterlimit="10"
         d="M 245.89547,145.20553 250,135 l -10.11874,4.31406" />
    </g>
    <g
       id="g128"
       transform="translate(-6,-6)">
      <g
         id="g130">
        <path
           style="fill:none;stroke:none"
           d=""
           id="path132" />
        <text
           style="font-style:normal;font-weight:normal;font-size:13px;font-family:Arial;text-decoration:none;text-decoration-line:none;fill:#000000;stroke:none"
           id="text134"
           y="220"
           x="207"
           text-decoration="none"
           font-weight="normal"
           font-style="normal"
           font-size="13px">[else]</text>
      </g>
    </g>
    <g
       id="g136"
       transform="translate(-6,-6)">
      <path
         style="opacity:0.2;fill:#c0c0c0;stroke:none"
         id="path138"
         d="M 287,400.5 298.5,391 309,400.5 298.5,409 287,400.5" />
    </g>
    <g
       id="g140"
       transform="translate(-6,-6)">
      <path
         style="fill:#ffc082;stroke:none"
         id="path142"
         d="m 280,393 11,-9 11,9 -11,9 -11,-9" />
    </g>
    <g
       id="g144"
       transform="translate(-6,-6)">
      <path
         style="fill:none;stroke:#000000;stroke-miterlimit:10"
         id="path146"
         stroke-miterlimit="10"
         d="m 280,393 11,-9 11,9 -11,9 -11,-9 0,0" />
    </g>
    <g
       id="g148"
       transform="translate(-6,-6)">
      <path
         style="opacity:0.2;fill:#c0c0c0;stroke:none"
         id="path150"
         d="m 217,439 163,0 q 10,0 10,10 l 0,20 q 0,10 -10,10 l -163,0 q -10,0 -10,-10 l 0,-20 q 0,-10 10,-10 z" />
    </g>
    <g
       id="g152"
       transform="translate(-6,-6)">
      <path
         style="fill:#adc8ff;stroke:none"
         id="path154"
         d="m 210,432 163,0 q 10,0 10,10 l 0,20 q 0,10 -10,10 l -163,0 q -10,0 -10,-10 l 0,-20 q 0,-10 10,-10 z" />
    </g>
    <g
       id="g156"
       transform="translate(-6,-6)">
      <path
         style="fill:none;stroke:#000000;stroke-miterlimit:10"
         id="path158"
         stroke-miterlimit="10"
         d="m 210,432 163,0 q 10,0 10,10 l 0,20 q 0,10 -10,10 l -163,0 q -10,0 -10,-10 l 0,-20 q 0,-10 10,-10 z" />
    </g>
    <g
       id="g160"
       transform="translate(-6,-6)">
      <g
         id="g162">
        <path
           style="fill:none;stroke:none"
           d=""
           id="path164" />
        <text
           style="font-style:normal;font-weight:bold;font-size:13px;font-family:Arial;text-decoration:none;text-decoration-line:none;fill:#000000;stroke:none"
           id="text166"
           y="451.5"
           x="212.5"
           text-decoration="none"
           font-weight="bold"
           font-style="normal"
           font-size="13px">calculate NextReleaseTime</text>
      </g>
    </g>
    <g
       id="g168"
       transform="translate(-6,-6)">
      <path
         style="fill:none;stroke:#000000;stroke-miterlimit:10"
         id="path170"
         stroke-miterlimit="10"
         d="m 291,403 0,28" />
    </g>
    <g
       id="g172"
       transform="translate(-6,-6)">
      <path
         style="fill:none;stroke:#000000;stroke-miterlimit:10"
         id="path174"
         stroke-miterlimit="10"
         d="M 286.79048,420.83733 291,431 l 4.20952,-10.16267" />
    </g>
    <g
       id="g176"
       transform="translate(-6,-6)">
      <g
         id="g178">
        <path
           style="fill:none;stroke:none"
           d=""
           id="path180" />
        <text
           style="font-style:normal;font-weight:normal;font-size:13px;font-family:Arial;text-decoration:none;text-decoration-line:none;fill:#000000;stroke:none"
           id="text182"
           y="413"
           x="295"
           text-decoration="none"
           font-weight="normal"
           font-style="normal"
           font-size="13px">[_disk.isStable()]</text>
      </g>
    </g>
    <g
       id="g184"
       transform="translate(-6,-6)">
      <path
         style="opacity:0.2;fill:#c0c0c0;stroke:none"
         id="path186"
         d="m 448,439 134,0 q 10,0 10,10 l 0,20 q 0,10 -10,10 l -134,0 q -10,0 -10,-10 l 0,-20 q 0,-10 10,-10 z" />
    </g>
    <g
       id="g188"
       transform="translate(-6,-6)">
      <path
         style="fill:#adc8ff;stroke:none"
         id="path190"
         d="m 441,432 134,0 q 10,0 10,10 l 0,20 q 0,10 -10,10 l -134,0 q -10,0 -10,-10 l 0,-20 q 0,-10 10,-10 z" />
    </g>
    <g
       id="g192"
       transform="translate(-6,-6)">
      <path
         style="fill:none;stroke:#000000;stroke-miterlimit:10"
         id="path194"
         stroke-miterlimit="10"
         d="m 441,432 134,0 q 10,0 10,10 l 0,20 q 0,10 -10,10 l -134,0 q -10,0 -10,-10 l 0,-20 q 0,-10 10,-10 z" />
    </g>
    <g
       id="g196"
       transform="translate(-6,-6)">
      <g
         id="g198">
        <path
           style="fill:none;stroke:none"
           d=""
           id="path200" />
        <text
           style="font-style:normal;font-weight:bold;font-size:13px;font-family:Arial;text-decoration:none;text-decoration-line:none;fill:#000000;stroke:none"
           id="text202"
           y="451.5"
           x="445"
           text-decoration="none"
           font-weight="bold"
           font-style="normal"
           font-size="13px">calculate CurrentTime</text>
      </g>
    </g>
    <g
       id="g204"
       transform="translate(-6,-6)">
      <path
         style="fill:none;stroke:#000000;stroke-miterlimit:10"
         id="path206"
         stroke-miterlimit="10"
         d="m 384,452 46,0" />
    </g>
    <g
       id="g208"
       transform="translate(-6,-6)">
      <path
         style="fill:none;stroke:#000000;stroke-miterlimit:10"
         id="path210"
         stroke-miterlimit="10"
         d="M 419.83733,456.20952 430,452 419.83733,447.79048" />
    </g>
    <g
       id="g212"
       transform="translate(-6,-6)">
      <path
         style="opacity:0.2;fill:#c0c0c0;stroke:none"
         id="path214"
         d="M 504,324.5 515.5,315 526,324.5 515.5,333 504,324.5" />
    </g>
    <g
       id="g216"
       transform="translate(-6,-6)">
      <path
         style="fill:#ffc082;stroke:none"
         id="path218"
         d="m 497,317 11,-9 11,9 -11,9 -11,-9" />
    </g>
    <g
       id="g220"
       transform="translate(-6,-6)">
      <path
         style="fill:none;stroke:#000000;stroke-miterlimit:10"
         id="path222"
         stroke-miterlimit="10"
         d="m 497,317 11,-9 11,9 -11,9 -11,-9 0,0" />
    </g>
    <g
       id="g224"
       transform="translate(-6,-6)">
      <path
         style="fill:none;stroke:#000000;stroke-miterlimit:10"
         id="path226"
         stroke-miterlimit="10"
         d="m 508,431 0,-104" />
    </g>
    <g
       id="g228"
       transform="translate(-6,-6)">
      <path
         style="fill:none;stroke:#000000;stroke-miterlimit:10"
         id="path230"
         stroke-miterlimit="10"
         d="M 512.20952,337.16267 508,327 l -4.20952,10.16267" />
    </g>
    <g
       id="g232"
       transform="translate(-6,-6)">
      <path
         style="opacity:0.2;fill:#c0c0c0;stroke:none"
         id="path234"
         d="m 463,207 105,0 q 10,0 10,10 l 0,20 q 0,10 -10,10 l -105,0 q -10,0 -10,-10 l 0,-20 q 0,-10 10,-10 z" />
    </g>
    <g
       id="g236"
       transform="translate(-6,-6)">
      <path
         style="fill:#adc8ff;stroke:none"
         id="path238"
         d="m 456,200 105,0 q 10,0 10,10 l 0,20 q 0,10 -10,10 l -105,0 q -10,0 -10,-10 l 0,-20 q 0,-10 10,-10 z" />
    </g>
    <g
       id="g240"
       transform="translate(-6,-6)">
      <path
         style="fill:none;stroke:#000000;stroke-miterlimit:10"
         id="path242"
         stroke-miterlimit="10"
         d="m 456,200 105,0 q 10,0 10,10 l 0,20 q 0,10 -10,10 l -105,0 q -10,0 -10,-10 l 0,-20 q 0,-10 10,-10 z" />
    </g>
    <g
       id="g244"
       transform="translate(-6,-6)">
      <g
         id="g246">
        <path
           style="fill:none;stroke:none"
           d=""
           id="path248" />
        <text
           style="font-style:normal;font-weight:bold;font-size:13px;font-family:Arial;text-decoration:none;text-decoration-line:none;fill:#000000;stroke:none"
           id="text250"
           y="219.5"
           x="456.5"
           text-decoration="none"
           font-weight="bold"
           font-style="normal"
           font-size="13px">releaseTheKraken</text>
      </g>
    </g>
    <g
       id="g252"
       transform="translate(-6,-6)">
      <path
         style="fill:none;stroke:#000000;stroke-miterlimit:10"
         id="path254"
         stroke-miterlimit="10"
         d="m 508,307 0,-66" />
    </g>
    <g
       id="g256"
       transform="translate(-6,-6)">
      <path
         style="fill:none;stroke:#000000;stroke-miterlimit:10"
         id="path258"
         stroke-miterlimit="10"
         d="M 512.20952,251.16267 508,241 l -4.20952,10.16267" />
    </g>
    <g
       id="g268"
       transform="translate(-6,-6)">
      <path
         style="fill:none;stroke:#000000;stroke-miterlimit:10"
         id="path270"
         stroke-miterlimit="10"
         d="m 291,36 0,17" />
    </g>
    <g
       id="g272"
       transform="translate(-6,-6)">
      <path
         style="fill:none;stroke:#000000;stroke-miterlimit:10"
         id="path274"
         stroke-miterlimit="10"
         d="M 286.79048,42.837325 291,53 295.20952,42.837325" />
    </g>
    <g
       id="g276"
       transform="translate(-6,-6)">
      <path
         style="fill:none;stroke:#000000;stroke-miterlimit:10"
         id="path278"
         stroke-miterlimit="10"
         d="m 496,317 -159,1" />
    </g>
    <g
       id="g280"
       transform="translate(-6,-6)">
      <path
         style="fill:none;stroke:#000000;stroke-miterlimit:10"
         id="path282"
         stroke-miterlimit="10"
         d="M 347.136,313.72665 337,318 l 10.18895,4.14552" />
    </g>
    <g
       id="g284"
       transform="translate(-6,-6)">
      <g
         id="g286">
        <path
           style="fill:none;stroke:none"
           d=""
           id="path288" />
        <text
           style="font-style:normal;font-weight:normal;font-size:13px;font-family:Arial;text-decoration:none;text-decoration-line:none;fill:#000000;stroke:none"
           id="text290"
           y="309"
           x="447"
           text-decoration="none"
           font-weight="normal"
           font-style="normal"
           font-size="13px">[else]</text>
      </g>
    </g>
    <g
       id="g292"
       transform="translate(-6,-6)">
      <rect
         style="fill:#ffffff;stroke:none"
         id="rect294"
         height="17"
         width="17"
         y="205"
         x="569" />
    </g>
    <g
       id="g296"
       transform="translate(-6,-6)">
      <path
         style="fill:none;stroke:#000000;stroke-miterlimit:10"
         id="path298"
         stroke-miterlimit="10"
         d="m 569,205 17,0 0,17 -17,0 0,-17 z" />
    </g>
    <g
       id="g300"
       transform="translate(-6,-6)">
      <path
         style="fill:none;stroke:#000000;stroke-miterlimit:10"
         id="path302"
         stroke-miterlimit="10"
         d="m 571,213 13,0" />
    </g>
    <g
       id="g304"
       transform="translate(-6,-6)">
      <path
         style="fill:none;stroke:#000000;stroke-miterlimit:10"
         id="path306"
         stroke-miterlimit="10"
         d="m 584,213 -3,-3" />
    </g>
    <g
       id="g308"
       transform="translate(-6,-6)">
      <path
         style="fill:none;stroke:#000000;stroke-miterlimit:10"
         id="path310"
         stroke-miterlimit="10"
         d="m 584,213 -3,3" />
    </g>
    <g
       id="g312"
       transform="translate(-6,-6)">
      <g
         id="g314">
        <path
           style="fill:none;stroke:none"
           d=""
           id="path316" />
        <text
           style="font-style:normal;font-weight:normal;font-size:13px;font-family:Arial;text-decoration:none;text-decoration-line:none;fill:#000000;stroke:none"
           id="text318"
           y="218"
           x="595.5"
           text-decoration="none"
           font-weight="normal"
           font-style="normal"
           font-size="13px">_release: Release</text>
      </g>
    </g>
    <g
       id="g320"
       transform="translate(-6,-6)">
      <rect
         style="fill:#ffffff;stroke:none"
         id="rect322"
         height="17"
         width="17"
         y="64"
         x="232" />
    </g>
    <g
       id="g324"
       transform="translate(-6,-6)">
      <path
         style="fill:none;stroke:#000000;stroke-miterlimit:10"
         id="path326"
         stroke-miterlimit="10"
         d="m 232,64 17,0 0,17 -17,0 0,-17 z" />
    </g>
    <g
       id="g328"
       transform="translate(-6,-6)">
      <path
         style="fill:none;stroke:#000000;stroke-miterlimit:10"
         id="path330"
         stroke-miterlimit="10"
         d="m 234,72 13,0" />
    </g>
    <g
       id="g332"
       transform="translate(-6,-6)">
      <path
         style="fill:none;stroke:#000000;stroke-miterlimit:10"
         id="path334"
         stroke-miterlimit="10"
         d="m 247,72 -3,-3" />
    </g>
    <g
       id="g336"
       transform="translate(-6,-6)">
      <path
         style="fill:none;stroke:#000000;stroke-miterlimit:10"
         id="path338"
         stroke-miterlimit="10"
         d="m 247,72 -3,3" />
    </g>
    <g
       id="g340"
       transform="translate(-6,-6)">
      <g
         id="g342">
        <path
           style="fill:none;stroke:none"
           d=""
           id="path344" />
        <text
           style="font-style:normal;font-weight:normal;font-size:13px;font-family:Arial;text-decoration:none;text-decoration-line:none;fill:#000000;stroke:none"
           id="text346"
           y="76"
           x="87.5"
           text-decoration="none"
           font-weight="normal"
           font-style="normal"
           font-size="13px">_pSensor: PhotoSensor</text>
      </g>
    </g>
    <g
       id="g348"
       transform="translate(-6,-6)">
      <rect
         style="fill:#ffffff;stroke:none"
         id="rect350"
         height="17"
         width="17"
         y="80"
         x="232" />
    </g>
    <g
       id="g352"
       transform="translate(-6,-6)">
      <path
         style="fill:none;stroke:#000000;stroke-miterlimit:10"
         id="path354"
         stroke-miterlimit="10"
         d="m 232,80 17,0 0,17 -17,0 0,-17 z" />
    </g>
    <g
       id="g356"
       transform="translate(-6,-6)">
      <path
         style="fill:none;stroke:#000000;stroke-miterlimit:10"
         id="path358"
         stroke-miterlimit="10"
         d="m 234,88 13,0" />
    </g>
    <g
       id="g360"
       transform="translate(-6,-6)">
      <path
         style="fill:none;stroke:#000000;stroke-miterlimit:10"
         id="path362"
         stroke-miterlimit="10"
         d="m 247,88 -3,-3" />
    </g>
    <g
       id="g364"
       transform="translate(-6,-6)">
      <path
         style="fill:none;stroke:#000000;stroke-miterlimit:10"
         id="path366"
         stroke-miterlimit="10"
         d="m 247,88 -3,3" />
    </g>
    <g
       id="g368"
       transform="translate(-6,-6)">
      <g
         id="g370">
        <path
           style="fill:none;stroke:none"
           d=""
           id="path372" />
        <text
           style="font-style:normal;font-weight:normal;font-size:13px;font-family:Arial;text-decoration:none;text-decoration-line:none;fill:#000000;stroke:none"
           id="text374"
           y="92"
           x="96.5"
           text-decoration="none"
           font-weight="normal"
           font-style="normal"
           font-size="13px">_hSensor: HallSensor</text>
      </g>
    </g>
    <g
       id="g376"
       transform="translate(-6,-6)">
      <rect
         style="fill:#ffffff;stroke:none"
         id="rect378"
         height="17"
         width="17"
         y="296"
         x="233" />
    </g>
    <g
       id="g380"
       transform="translate(-6,-6)">
      <path
         style="fill:none;stroke:#000000;stroke-miterlimit:10"
         id="path382"
         stroke-miterlimit="10"
         d="m 233,296 17,0 0,17 -17,0 0,-17 z" />
    </g>
    <g
       id="g384"
       transform="translate(-6,-6)">
      <path
         style="fill:none;stroke:#000000;stroke-miterlimit:10"
         id="path386"
         stroke-miterlimit="10"
         d="m 235,304 13,0" />
    </g>
    <g
       id="g388"
       transform="translate(-6,-6)">
      <path
         style="fill:none;stroke:#000000;stroke-miterlimit:10"
         id="path390"
         stroke-miterlimit="10"
         d="m 248,304 -3,-3" />
    </g>
    <g
       id="g392"
       transform="translate(-6,-6)">
      <path
         style="fill:none;stroke:#000000;stroke-miterlimit:10"
         id="path394"
         stroke-miterlimit="10"
         d="m 248,304 -3,3" />
    </g>
    <g
       id="g396"
       transform="translate(-6,-6)">
      <g
         id="g398">
        <path
           style="fill:none;stroke:none"
           d=""
           id="path400" />
        <text
           style="font-style:normal;font-weight:normal;font-size:13px;font-family:Arial;text-decoration:none;text-decoration-line:none;fill:#000000;stroke:none"
           id="text402"
           y="308"
           x="87.5"
           text-decoration="none"
           font-weight="normal"
           font-style="normal"
           font-size="13px">_pSensor: PhotoSensor</text>
      </g>
    </g>
    <g
       id="g404"
       transform="translate(-6,-6)">
      <rect
         style="fill:#ffffff;stroke:none"
         id="rect406"
         height="17"
         width="17"
         y="312"
         x="233" />
    </g>
    <g
       id="g408"
       transform="translate(-6,-6)">
      <path
         style="fill:none;stroke:#000000;stroke-miterlimit:10"
         id="path410"
         stroke-miterlimit="10"
         d="m 233,312 17,0 0,17 -17,0 0,-17 z" />
    </g>
    <g
       id="g412"
       transform="translate(-6,-6)">
      <path
         style="fill:none;stroke:#000000;stroke-miterlimit:10"
         id="path414"
         stroke-miterlimit="10"
         d="m 235,320 13,0" />
    </g>
    <g
       id="g416"
       transform="translate(-6,-6)">
      <path
         style="fill:none;stroke:#000000;stroke-miterlimit:10"
         id="path418"
         stroke-miterlimit="10"
         d="m 248,320 -3,-3" />
    </g>
    <g
       id="g420"
       transform="translate(-6,-6)">
      <path
         style="fill:none;stroke:#000000;stroke-miterlimit:10"
         id="path422"
         stroke-miterlimit="10"
         d="m 248,320 -3,3" />
    </g>
    <g
       id="g424"
       transform="translate(-6,-6)">
      <g
         id="g426">
        <path
           style="fill:none;stroke:none"
           d=""
           id="path428" />
        <text
           style="font-style:normal;font-weight:normal;font-size:13px;font-family:Arial;text-decoration:none;text-decoration-line:none;fill:#000000;stroke:none"
           id="text430"
           y="324"
           x="95.5"
           text-decoration="none"
           font-weight="normal"
           font-style="normal"
           font-size="13px">_hSensor: HallSensor</text>
      </g>
    </g>
    <g
       id="g432"
       transform="translate(-6,-6)">
      <path
         style="fill:none;stroke:#000000;stroke-miterlimit:10"
         id="path434"
         stroke-miterlimit="10"
         d="m 291,353 0,30" />
    </g>
    <g
       id="g436"
       transform="translate(-6,-6)">
      <path
         style="fill:none;stroke:#000000;stroke-miterlimit:10"
         id="path438"
         stroke-miterlimit="10"
         d="M 286.79048,372.83733 291,383 l 4.20952,-10.16267" />
    </g>
    <g
       id="g440"
       transform="translate(-6,-6)">
      <path
         style="opacity:0.2;fill:#c0c0c0;stroke:none"
         id="path442"
         d="m 33,295 39,0 q 10,0 10,10 l 0,20 q 0,10 -10,10 l -39,0 q -10,0 -10,-10 l 0,-20 q 0,-10 10,-10 z" />
    </g>
    <g
       id="g444"
       transform="translate(-6,-6)">
      <path
         style="fill:#adc8ff;stroke:none"
         id="path446"
         d="m 26,288 39,0 q 10,0 10,10 l 0,20 q 0,10 -10,10 l -39,0 q -10,0 -10,-10 l 0,-20 q 0,-10 10,-10 z" />
    </g>
    <g
       id="g448"
       transform="translate(-6,-6)">
      <path
         style="fill:none;stroke:#000000;stroke-miterlimit:10"
         id="path450"
         stroke-miterlimit="10"
         d="m 26,288 39,0 q 10,0 10,10 l 0,20 q 0,10 -10,10 l -39,0 q -10,0 -10,-10 l 0,-20 q 0,-10 10,-10 z" />
    </g>
    <g
       id="g452"
       transform="translate(-6,-6)">
      <g
         id="g454">
        <path
           style="fill:none;stroke:none"
           d=""
           id="path456" />
        <text
           style="font-style:normal;font-weight:bold;font-size:13px;font-family:Arial;text-decoration:none;text-decoration-line:none;fill:#000000;stroke:none"
           id="text458"
           y="307.5"
           x="30"
           text-decoration="none"
           font-weight="bold"
           font-style="normal"
           font-size="13px">delay</text>
      </g>
    </g>
    <g
       id="g460"
       transform="translate(-6,-6)">
      <path
         style="fill:none;stroke:#000000;stroke-miterlimit:10"
         id="path462"
         stroke-miterlimit="10"
         d="M 279,394 Q 136,400 66,329" />
    </g>
    <g
       id="g464"
       transform="translate(-6,-6)">
      <path
         style="fill:none;stroke:#000000;stroke-miterlimit:10"
         id="path466"
         stroke-miterlimit="10"
         d="M 76.132565,333.28149 66,329 l 4.137338,10.19227" />
    </g>
    <g
       id="g468"
       transform="translate(-6,-6)">
      <g
         id="g470">
        <path
           style="fill:none;stroke:none"
           d=""
           id="path472" />
        <text
           style="font-style:normal;font-weight:normal;font-size:13px;font-family:Arial;text-decoration:none;text-decoration-line:none;fill:#000000;stroke:none"
           id="text474"
           y="403"
           x="150"
           text-decoration="none"
           font-weight="normal"
           font-style="normal"
           font-size="13px">[else]</text>
      </g>
    </g>
    <g
       id="g476"
       transform="translate(-6,-6)">
      <path
         style="fill:none;stroke:#000000;stroke-miterlimit:10"
         id="path478"
         stroke-miterlimit="10"
         d="M 59,287 Q 120,192 246,120" />
    </g>
    <g
       id="g480"
       transform="translate(-6,-6)">
      <path
         style="fill:none;stroke:#000000;stroke-miterlimit:10"
         id="path482"
         stroke-miterlimit="10"
         d="M 239.26483,128.69698 246,120 l -10.91218,1.38721" />
    </g>
    <g
       id="g484"
       transform="translate(-6,-6)">
      <path
         style="opacity:0.2;fill:#c0c0c0;stroke:none"
         id="path486"
         d="m 496,81 39,0 q 10,0 10,10 l 0,20 q 0,10 -10,10 l -39,0 q -10,0 -10,-10 l 0,-20 q 0,-10 10,-10 z" />
    </g>
    <g
       id="g488"
       transform="translate(-6,-6)">
      <path
         style="fill:#adc8ff;stroke:none"
         id="path490"
         d="m 489,74 39,0 q 10,0 10,10 l 0,20 q 0,10 -10,10 l -39,0 q -10,0 -10,-10 l 0,-20 q 0,-10 10,-10 z" />
    </g>
    <g
       id="g492"
       transform="translate(-6,-6)">
      <path
         style="fill:none;stroke:#000000;stroke-miterlimit:10"
         id="path494"
         stroke-miterlimit="10"
         d="m 489,74 39,0 q 10,0 10,10 l 0,20 q 0,10 -10,10 l -39,0 q -10,0 -10,-10 l 0,-20 q 0,-10 10,-10 z" />
    </g>
    <g
       id="g496"
       transform="translate(-6,-6)">
      <g
         id="g498">
        <path
           style="fill:none;stroke:none"
           d=""
           id="path500" />
        <text
           style="font-style:normal;font-weight:bold;font-size:13px;font-family:Arial;text-decoration:none;text-decoration-line:none;fill:#000000;stroke:none"
           id="text502"
           y="93.5"
           x="493"
           text-decoration="none"
           font-weight="bold"
           font-style="normal"
           font-size="13px">delay</text>
      </g>
    </g>
    <g
       id="g504"
       transform="translate(-6,-6)">
      <path
         style="fill:none;stroke:#000000;stroke-miterlimit:10"
         id="path506"
         stroke-miterlimit="10"
         d="m 508,199 0,-84" />
    </g>
    <g
       id="g508"
       transform="translate(-6,-6)">
      <path
         style="fill:none;stroke:#000000;stroke-miterlimit:10"
         id="path510"
         stroke-miterlimit="10"
         d="M 512.20952,125.16267 508,115 l -4.20952,10.16267" />
    </g>
    <g
       id="g512"
       transform="translate(-6,-6)">
      <rect
         style="fill:#ffffff;stroke:none"
         id="rect514"
         height="17"
         width="17"
         y="96"
         x="232" />
    </g>
    <g
       id="g516"
       transform="translate(-6,-6)">
      <path
         style="fill:none;stroke:#000000;stroke-miterlimit:10"
         id="path518"
         stroke-miterlimit="10"
         d="m 232,96 17,0 0,17 -17,0 0,-17 z" />
    </g>
    <g
       id="g520"
       transform="translate(-6,-6)">
      <path
         style="fill:none;stroke:#000000;stroke-miterlimit:10"
         id="path522"
         stroke-miterlimit="10"
         d="m 234,104 13,0" />
    </g>
    <g
       id="g524"
       transform="translate(-6,-6)">
      <path
         style="fill:none;stroke:#000000;stroke-miterlimit:10"
         id="path526"
         stroke-miterlimit="10"
         d="m 247,104 -3,-3" />
    </g>
    <g
       id="g528"
       transform="translate(-6,-6)">
      <path
         style="fill:none;stroke:#000000;stroke-miterlimit:10"
         id="path530"
         stroke-miterlimit="10"
         d="m 247,104 -3,3" />
    </g>
    <g
       id="g532"
       transform="translate(-6,-6)">
      <g
         id="g534">
        <path
           style="fill:none;stroke:none"
           d=""
           id="path536" />
        <text
           style="font-style:normal;font-weight:normal;font-size:13px;font-family:Arial;text-decoration:none;text-decoration-line:none;fill:#000000;stroke:none"
           id="text538"
           y="107"
           x="134.5"
           text-decoration="none"
           font-weight="normal"
           font-style="normal"
           font-size="13px">_trigger: Trigger</text>
      </g>
    </g>
    <g
       id="g540"
       transform="translate(-6,-6)">
      <rect
         style="fill:#ffffff;stroke:none"
         id="rect542"
         height="17"
         width="17"
         y="328"
         x="233" />
    </g>
    <g
       id="g544"
       transform="translate(-6,-6)">
      <path
         style="fill:none;stroke:#000000;stroke-miterlimit:10"
         id="path546"
         stroke-miterlimit="10"
         d="m 233,328 17,0 0,17 -17,0 0,-17 z" />
    </g>
    <g
       id="g548"
       transform="translate(-6,-6)">
      <path
         style="fill:none;stroke:#000000;stroke-miterlimit:10"
         id="path550"
         stroke-miterlimit="10"
         d="m 235,336 13,0" />
    </g>
    <g
       id="g552"
       transform="translate(-6,-6)">
      <path
         style="fill:none;stroke:#000000;stroke-miterlimit:10"
         id="path554"
         stroke-miterlimit="10"
         d="m 248,336 -3,-3" />
    </g>
    <g
       id="g556"
       transform="translate(-6,-6)">
      <path
         style="fill:none;stroke:#000000;stroke-miterlimit:10"
         id="path558"
         stroke-miterlimit="10"
         d="m 248,336 -3,3" />
    </g>
    <g
       id="g560"
       transform="translate(-6,-6)">
      <g
         id="g562">
        <path
           style="fill:none;stroke:none"
           d=""
           id="path564" />
        <text
           style="font-style:normal;font-weight:normal;font-size:13px;font-family:Arial;text-decoration:none;text-decoration-line:none;fill:#000000;stroke:none"
           id="text566"
           y="339"
           x="133.5"
           text-decoration="none"
           font-weight="normal"
           font-style="normal"
           font-size="13px">_trigger: Trigger</text>
      </g>
    </g>
    <g
       id="g568"
       transform="translate(-6,-6)">
      <path
         style="opacity:0.2;fill:#c0c0c0;stroke:none"
         id="path570"
         d="M 399,101.5 410.5,92 421,101.5 410.5,110 399,101.5" />
    </g>
    <g
       id="g572"
       transform="translate(-6,-6)">
      <path
         style="fill:#ffc082;stroke:none"
         id="path574"
         d="m 392,94 11,-9 11,9 -11,9 -11,-9" />
    </g>
    <g
       id="g576"
       transform="translate(-6,-6)">
      <path
         style="fill:none;stroke:#000000;stroke-miterlimit:10"
         id="path578"
         stroke-miterlimit="10"
         d="m 392,94 11,-9 11,9 -11,9 -11,-9 0,0" />
    </g>
    <g
       id="g580"
       transform="translate(-6,-6)">
      <path
         style="fill:none;stroke:#000000;stroke-miterlimit:10"
         id="path582"
         stroke-miterlimit="10"
         d="m 478,94 -63,0" />
    </g>
    <g
       id="g584"
       transform="translate(-6,-6)">
      <path
         style="fill:none;stroke:#000000;stroke-miterlimit:10"
         id="path586"
         stroke-miterlimit="10"
         d="M 425.16267,89.790482 415,94 l 10.16267,4.209518" />
    </g>
    <g
       id="g588"
       transform="translate(-6,-6)">
      <path
         style="fill:none;stroke:#000000;stroke-miterlimit:10"
         id="path590"
         stroke-miterlimit="10"
         d="m 391,94 -54,0" />
    </g>
    <g
       id="g592"
       transform="translate(-6,-6)">
      <path
         style="fill:none;stroke:#000000;stroke-miterlimit:10"
         id="path594"
         stroke-miterlimit="10"
         d="M 347.16267,89.790482 337,94 l 10.16267,4.209518" />
    </g>
    <g
       id="g596"
       transform="translate(-6,-6)">
      <g
         id="g598">
        <path
           style="fill:none;stroke:none"
           d=""
           id="path600" />
        <text
           style="font-style:normal;font-weight:normal;font-size:13px;font-family:Arial;text-decoration:none;text-decoration-line:none;fill:#000000;stroke:none"
           id="text602"
           y="91"
           x="351"
           text-decoration="none"
           font-weight="normal"
           font-style="normal"
           font-size="13px">[else]</text>
      </g>
    </g>
    <g
       id="g604"
       transform="translate(-6,-6)">
      <path
         style="fill:none;stroke:#000000;stroke-miterlimit:10"
         id="path606"
         stroke-miterlimit="10"
         d="m 394,104 q -58,64 -93,180" />
    </g>
    <g
       id="g608"
       transform="translate(-6,-6)">
      <path
         style="fill:none;stroke:#000000;stroke-miterlimit:10"
         id="path610"
         stroke-miterlimit="10"
         d="M 299.90554,273.05458 301,284 l 6.96568,-8.51348" />
    </g>
    <g
       id="g612"
       transform="translate(-6,-6)">
      <g
         id="g614">
        <path
           style="fill:none;stroke:none"
           d=""
           id="path616" />
        <text
           style="font-style:normal;font-weight:normal;font-size:13px;font-family:Arial;text-decoration:none;text-decoration-line:none;fill:#000000;stroke:none"
           id="text618"
           y="150"
           x="367"
           text-decoration="none"
           font-weight="normal"
           font-style="normal"
           font-size="13px">[_triggerCount &gt; 0]</text>
      </g>
    </g>
  </g>
  <text
     id="text4750"
     y="260.67398"
     x="660.03082"
     style="font-style:normal;font-weight:normal;font-size:20px;line-height:125%;font-family:Sans;letter-spacing:0px;word-spacing:0px;fill:#000000;fill-opacity:1;stroke:none;stroke-width:1px;stroke-linecap:butt;stroke-linejoin:miter;stroke-opacity:1"
     xml:space="preserve"><tspan
       style="font-style:normal;font-variant:normal;font-weight:normal;font-stretch:normal;font-size:12.99999905px;line-height:125%;font-family:Arial;-inkscape-font-specification:'Arial, Normal';text-align:center;writing-mode:lr-tb;text-anchor:middle"
       y="260.67398"
       x="660.03082"
       id="tspan4752">[currentTime &gt;= nextReleaseTime - 0.5 * _pollInterval</tspan><tspan
       style="font-style:normal;font-variant:normal;font-weight:normal;font-stretch:normal;font-size:12.99999905px;line-height:125%;font-family:Arial;-inkscape-font-specification:'Arial, Normal';text-align:center;writing-mode:lr-tb;text-anchor:middle"
       id="tspan4754"
       y="276.92398"
       x="660.03082">AND</tspan><tspan
       style="font-style:normal;font-variant:normal;font-weight:normal;font-stretch:normal;font-size:12.99999905px;line-height:125%;font-family:Arial;-inkscape-font-specification:'Arial, Normal';text-align:center;writing-mode:lr-tb;text-anchor:middle"
       id="tspan4756"
       y="293.17398"
       x="660.03082">currentTime &lt;= nextReleaseTime + 0.5 * _pollInterval]</tspan></text>
</svg>
