<svg version="1.1" xmlns="http://www.w3.org/2000/svg" xmlns:xlink="http://www.w3.org/1999/xlink" width="301" height="421"><defs></defs><g><g transform="translate(-22,-6) scale(1,1)"><path fill="#C0C0C0" stroke="none" d="M 167 32.5 C 167 27.2532944 171.2532944 23 176.5 23 C 181.7467056 23 186 27.2532944 186 32.5 C 186 37.7467056 181.7467056 42 176.5 42 C 171.2532944 42 167 37.7467056 167 32.5 Z" opacity="0.2"></path></g><g transform="translate(-22,-6) scale(1,1)"><path fill="#000000" stroke="none" d="M 160 25.5 C 160 20.2532944 164.2532944 16 169.5 16 C 174.7467056 16 179 20.2532944 179 25.5 C 179 30.7467056 174.7467056 35 169.5 35 C 164.2532944 35 160 30.7467056 160 25.5 Z"></path></g><g transform="translate(-22,-6) scale(1,1)"><path fill="#C0C0C0" stroke="none" d="M 130 71 L 222 71 Q 232 71 232 81 L 232 100 Q 232 110 222 110 L 130 110 Q 120 110 120 100 L 120 81 Q 120 71 130 71 Z" opacity="0.2"></path></g><g transform="translate(-22,-6) scale(1,1)"><path fill="#9ae79a" stroke="none" d="M 123 64 L 215 64 Q 225 64 225 74 L 225 93 Q 225 103 215 103 L 123 103 Q 113 103 113 93 L 113 74 Q 113 64 123 64 Z"></path></g><g transform="translate(-22,-6) scale(1,1)"><path fill="none" stroke="#000000" d="M 123 64 L 215 64 Q 225 64 225 74 L 225 93 Q 225 103 215 103 L 123 103 Q 113 103 113 93 L 113 74 Q 113 64 123 64 Z" stroke-miterlimit="10"></path></g><g transform="translate(-22,-6) scale(1,1)"><g><path fill="none" stroke="none"></path><text fill="#000000" stroke="none" font-family="Arial" font-size="13px" font-style="normal" font-weight="bold" text-decoration="none" x="122" y="83.5">Wait for stability</text></g></g><g transform="translate(-22,-6) scale(1,1)"><path fill="#C0C0C0" stroke="none" d="M 129 247 L 224 247 Q 234 247 234 257 L 234 276 Q 234 286 224 286 L 129 286 Q 119 286 119 276 L 119 257 Q 119 247 129 247 Z" opacity="0.2"></path></g><g transform="translate(-22,-6) scale(1,1)"><path fill="#9ae79a" stroke="none" d="M 122 240 L 217 240 Q 227 240 227 250 L 227 269 Q 227 279 217 279 L 122 279 Q 112 279 112 269 L 112 250 Q 112 240 122 240 Z"></path></g><g transform="translate(-22,-6) scale(1,1)"><path fill="none" stroke="#000000" d="M 122 240 L 217 240 Q 227 240 227 250 L 227 269 Q 227 279 217 279 L 122 279 Q 112 279 112 269 L 112 250 Q 112 240 122 240 Z" stroke-miterlimit="10"></path></g><g transform="translate(-22,-6) scale(1,1)"><g><path fill="none" stroke="none"></path><text fill="#000000" stroke="none" font-family="Arial" font-size="13px" font-style="normal" font-weight="bold" text-decoration="none" x="122.5" y="259.5">Wait for fall time</text></g></g><g transform="translate(-22,-6) scale(1,1)"><path fill="none" stroke="#000000" d="M 169 36 L 169 63" stroke-miterlimit="10"></path></g><g transform="translate(-22,-6) scale(1,1)"><path fill="none" stroke="#000000" d="M 164.790482243984 52.837325142375846 L 169 63 L 173.209517756016 52.837325142375846" stroke-miterlimit="10"></path></g><g transform="translate(-22,-6) scale(1,1)"><path fill="none" stroke="#000000" d="M 161 104 Q 136 168 162 239" stroke-miterlimit="10"></path></g><g transform="translate(-22,-6) scale(1,1)"><path fill="none" stroke="#000000" d="M 154.55258552995866 230.90456809605448 L 162 239 L 162.45821752184077 228.00954793001316" stroke-miterlimit="10"></path></g><g transform="translate(-22,-6) scale(1,1)"><g><path fill="none" stroke="none"></path><text fill="#000000" stroke="none" font-family="Arial" font-size="13px" font-style="normal" font-weight="normal" text-decoration="none" x="48" y="124">calculate fall time</text></g></g><g transform="translate(-22,-6) scale(1,1)"><path fill="none" stroke="#000000" d="M 169 280 L 169 327" stroke-miterlimit="10"></path></g><g transform="translate(-22,-6) scale(1,1)"><path fill="none" stroke="#000000" d="M 164.790482243984 316.83732514237585 L 169 327 L 173.209517756016 316.83732514237585" stroke-miterlimit="10"></path></g><g transform="translate(-22,-6) scale(1,1)"><g><path fill="none" stroke="none"></path><text fill="#000000" stroke="none" font-family="Arial" font-size="13px" font-style="normal" font-weight="normal" text-decoration="none" x="36" y="304">release [time reached]</text></g></g><g transform="translate(-22,-6) scale(1,1)"><path fill="none" stroke="#000000" d="M 176 239 Q 200 168 177 104" stroke-miterlimit="10"></path></g><g transform="translate(-22,-6) scale(1,1)"><path fill="none" stroke="#000000" d="M 184.39847441917746 112.14018281543952 L 177 104 L 176.4755329633401 114.98748990113107" stroke-miterlimit="10"></path></g><g transform="translate(-22,-6) scale(1,1)"><g><path fill="none" stroke="none"></path><text fill="#000000" stroke="none" font-family="Arial" font-size="13px" font-style="normal" font-weight="normal" text-decoration="none" x="192" y="220"> [time exceeded]</text></g></g><g transform="translate(-22,-6) scale(1,1)"><path fill="none" stroke="#000000" d="M 192 64 L 192 44 L 254 44 L 254 83 L 225 83" stroke-miterlimit="10"></path></g><g transform="translate(-22,-6) scale(1,1)"><path fill="none" stroke="#000000" d="M 235.16267485762415 78.79048224398402 L 225 83 L 235.16267485762415 87.20951775601598" stroke-miterlimit="10"></path></g><g transform="translate(-22,-6) scale(1,1)"><g><path fill="none" stroke="none"></path><text fill="#000000" stroke="none" font-family="Arial" font-size="13px" font-style="normal" font-weight="normal" text-decoration="none" x="216" y="36">update</text></g></g><g transform="translate(-22,-6) scale(1,1)"><path fill="none" stroke="#000000" d="M 128 240 L 128 220 L 64 220 L 64 259 L 112 259" stroke-miterlimit="10"></path></g><g transform="translate(-22,-6) scale(1,1)"><path fill="none" stroke="#000000" d="M 101.83732514237585 263.209517756016 L 112 259 L 101.83732514237585 254.790482243984" stroke-miterlimit="10"></path></g><g transform="translate(-22,-6) scale(1,1)"><g><path fill="none" stroke="none"></path><text fill="#000000" stroke="none" font-family="Arial" font-size="13px" font-style="normal" font-weight="normal" text-decoration="none" x="48" y="213">update</text></g></g><g transform="translate(-22,-6) scale(1,1)"><path fill="#C0C0C0" stroke="none" d="M 165 344.5 L 176.5 335 L 187 344.5 L 176.5 353 L 165 344.5" opacity="0.2"></path></g><g transform="translate(-22,-6) scale(1,1)"><path fill="#c1eac1" stroke="none" d="M 158 337 L 169 328 L 180 337 L 169 346 L 158 337"></path></g><g transform="translate(-22,-6) scale(1,1)"><path fill="none" stroke="#000000" d="M 158 337 L 169 328 L 180 337 L 169 346 L 158 337 L 158 337" stroke-miterlimit="10"></path></g><g transform="translate(-22,-6) scale(1,1)"><path fill="none" stroke="#000000" d="M 181 333 Q 312 288 312 220 Q 312 152 213 104" stroke-miterlimit="10"></path></g><g transform="translate(-22,-6) scale(1,1)"><path fill="none" stroke="#000000" d="M 223.981019275911 104.64592233439585 L 213 104 L 220.3080171315657 112.221489257108" stroke-miterlimit="10"></path></g><g transform="translate(-22,-6) scale(1,1)"><g><path fill="none" stroke="none"></path><text fill="#000000" stroke="none" font-family="Arial" font-size="13px" font-style="normal" font-weight="normal" text-decoration="none" x="207" y="341"> [else]</text></g></g><g transform="translate(-22,-6) scale(1,1)"><path fill="#C0C0C0" stroke="none" d="M 164 411.5 C 164 404.59644 169.59644 399 176.5 399 C 183.40356 399 189 404.59644 189 411.5 C 189 418.40356 183.40356 424 176.5 424 C 169.59644 424 164 418.40356 164 411.5 Z" opacity="0.2"></path></g><g transform="translate(-22,-6) scale(1,1)"><path fill="none" stroke="#000000" d="M 157 404.5 C 157 397.59644 162.59644 392 169.5 392 C 176.40356 392 182 397.59644 182 404.5 C 182 411.40356 176.40356 417 169.5 417 C 162.59644 417 157 411.40356 157 404.5 Z" stroke-miterlimit="10"></path></g><g transform="translate(-22,-6) scale(1,1)"><path fill="#000000" stroke="none" d="M 162 404.5 C 162 400.357864 165.357864 397 169.5 397 C 173.642136 397 177 400.357864 177 404.5 C 177 408.642136 173.642136 412 169.5 412 C 165.357864 412 162 408.642136 162 404.5 Z"></path></g><g transform="translate(-22,-6) scale(1,1)"><path fill="none" stroke="#000000" d="M 169 347 L 169 391" stroke-miterlimit="10"></path></g><g transform="translate(-22,-6) scale(1,1)"><path fill="none" stroke="#000000" d="M 164.790482243984 380.83732514237585 L 169 391 L 173.209517756016 380.83732514237585" stroke-miterlimit="10"></path></g><g transform="translate(-22,-6) scale(1,1)"><g><path fill="none" stroke="none"></path><text fill="#000000" stroke="none" font-family="Arial" font-size="13px" font-style="normal" font-weight="normal" text-decoration="none" x="32" y="368"> [_triggerCounter == 0]</text></g></g></g></svg>