<svg version="1.1" xmlns="http://www.w3.org/2000/svg" xmlns:xlink="http://www.w3.org/1999/xlink" width="1175" height="476"><defs></defs><g><g transform="translate(-6,-6) scale(1,1)"><path fill="#C0C0C0" stroke="none" d="M 289 32.5 C 289 27.2532944 293.2532944 23 298.5 23 C 303.7467056 23 308 27.2532944 308 32.5 C 308 37.7467056 303.7467056 42 298.5 42 C 293.2532944 42 289 37.7467056 289 32.5 Z" opacity="0.2"></path></g><g transform="translate(-6,-6) scale(1,1)"><path fill="#000000" stroke="none" d="M 282 25.5 C 282 20.2532944 286.2532944 16 291.5 16 C 296.7467056 16 301 20.2532944 301 25.5 C 301 30.7467056 296.7467056 35 291.5 35 C 286.2532944 35 282 30.7467056 282 25.5 Z"></path></g><g transform="translate(-6,-6) scale(1,1)"><path fill="#C0C0C0" stroke="none" d="M 264 61 L 333 61 Q 343 61 343 71 L 343 131 Q 343 141 333 141 L 264 141 Q 254 141 254 131 L 254 71 Q 254 61 264 61 Z" opacity="0.2"></path></g><g transform="translate(-6,-6) scale(1,1)"><path fill="#9ae79a" stroke="none" d="M 257 54 L 326 54 Q 336 54 336 64 L 336 124 Q 336 134 326 134 L 257 134 Q 247 134 247 124 L 247 64 Q 247 54 257 54 Z"></path></g><g transform="translate(-6,-6) scale(1,1)"><path fill="none" stroke="#000000" d="M 257 54 L 326 54 Q 336 54 336 64 L 336 124 Q 336 134 326 134 L 257 134 Q 247 134 247 124 L 247 64 Q 247 54 257 54 Z" stroke-miterlimit="10"></path></g><g transform="translate(-6,-6) scale(1,1)"><g><path fill="none" stroke="none"></path><text fill="#000000" stroke="none" font-family="Arial" font-size="13px" font-style="normal" font-weight="bold" text-decoration="none" x="272" y="73.5">update</text></g></g><g transform="translate(-6,-6) scale(1,1)"><path fill="#C0C0C0" stroke="none" d="M 279 167 L 318 167 Q 328 167 328 177 L 328 197 Q 328 207 318 207 L 279 207 Q 269 207 269 197 L 269 177 Q 269 167 279 167 Z" opacity="0.2"></path></g><g transform="translate(-6,-6) scale(1,1)"><path fill="#9ae79a" stroke="none" d="M 272 160 L 311 160 Q 321 160 321 170 L 321 190 Q 321 200 311 200 L 272 200 Q 262 200 262 190 L 262 170 Q 262 160 272 160 Z"></path></g><g transform="translate(-6,-6) scale(1,1)"><path fill="none" stroke="#000000" d="M 272 160 L 311 160 Q 321 160 321 170 L 321 190 Q 321 200 311 200 L 272 200 Q 262 200 262 190 L 262 170 Q 262 160 272 160 Z" stroke-miterlimit="10"></path></g><g transform="translate(-6,-6) scale(1,1)"><g><path fill="none" stroke="none"></path><text fill="#000000" stroke="none" font-family="Arial" font-size="13px" font-style="normal" font-weight="bold" text-decoration="none" x="276" y="179.5">delay</text></g></g><g transform="translate(-6,-6) scale(1,1)"><path fill="none" stroke="#000000" d="M 291 135 L 291 159" stroke-miterlimit="10"></path></g><g transform="translate(-6,-6) scale(1,1)"><path fill="none" stroke="#000000" d="M 286.790482243984 148.83732514237585 L 291 159 L 295.209517756016 148.83732514237585" stroke-miterlimit="10"></path></g><g transform="translate(-6,-6) scale(1,1)"><path fill="#C0C0C0" stroke="none" d="M 287 248.5 L 298.5 239 L 309 248.5 L 298.5 257 L 287 248.5" opacity="0.2"></path></g><g transform="translate(-6,-6) scale(1,1)"><path fill="#c1eac1" stroke="none" d="M 280 241 L 291 232 L 302 241 L 291 250 L 280 241"></path></g><g transform="translate(-6,-6) scale(1,1)"><path fill="none" stroke="#000000" d="M 280 241 L 291 232 L 302 241 L 291 250 L 280 241 L 280 241" stroke-miterlimit="10"></path></g><g transform="translate(-6,-6) scale(1,1)"><path fill="none" stroke="#000000" d="M 291 201 L 291 231" stroke-miterlimit="10"></path></g><g transform="translate(-6,-6) scale(1,1)"><path fill="none" stroke="#000000" d="M 286.790482243984 220.83732514237585 L 291 231 L 295.209517756016 220.83732514237585" stroke-miterlimit="10"></path></g><g transform="translate(-6,-6) scale(1,1)"><path fill="#C0C0C0" stroke="none" d="M 264 292 L 333 292 Q 343 292 343 302 L 343 349 Q 343 359 333 359 L 264 359 Q 254 359 254 349 L 254 302 Q 254 292 264 292 Z" opacity="0.2"></path></g><g transform="translate(-6,-6) scale(1,1)"><path fill="#9ae79a" stroke="none" d="M 257 285 L 326 285 Q 336 285 336 295 L 336 342 Q 336 352 326 352 L 257 352 Q 247 352 247 342 L 247 295 Q 247 285 257 285 Z"></path></g><g transform="translate(-6,-6) scale(1,1)"><path fill="none" stroke="#000000" d="M 257 285 L 326 285 Q 336 285 336 295 L 336 342 Q 336 352 326 352 L 257 352 Q 247 352 247 342 L 247 295 Q 247 285 257 285 Z" stroke-miterlimit="10"></path></g><g transform="translate(-6,-6) scale(1,1)"><g><path fill="none" stroke="none"></path><text fill="#000000" stroke="none" font-family="Arial" font-size="13px" font-style="normal" font-weight="bold" text-decoration="none" x="272" y="304.5">update</text></g></g><g transform="translate(-6,-6) scale(1,1)"><path fill="none" stroke="#000000" d="M 291 251 L 291 284" stroke-miterlimit="10"></path></g><g transform="translate(-6,-6) scale(1,1)"><path fill="none" stroke="#000000" d="M 286.790482243984 273.83732514237585 L 291 284 L 295.209517756016 273.83732514237585" stroke-miterlimit="10"></path></g><g transform="translate(-6,-6) scale(1,1)"><g><path fill="none" stroke="none"></path><text fill="#000000" stroke="none" font-family="Arial" font-size="13px" font-style="normal" font-weight="normal" text-decoration="none" x="167" y="265"> [_triggerCount &gt;  0]</text></g></g><g transform="translate(-6,-6) scale(1,1)"><path fill="none" stroke="#000000" d="M 279 233 Q 202 184 250 135" stroke-miterlimit="10"></path></g><g transform="translate(-6,-6) scale(1,1)"><path fill="none" stroke="#000000" d="M 245.8954701992995 145.20552963423071 L 250 135 L 239.8812599343776 139.31405835430724" stroke-miterlimit="10"></path></g><g transform="translate(-6,-6) scale(1,1)"><g><path fill="none" stroke="none"></path><text fill="#000000" stroke="none" font-family="Arial" font-size="13px" font-style="normal" font-weight="normal" text-decoration="none" x="207" y="220"> [else]</text></g></g><g transform="translate(-6,-6) scale(1,1)"><path fill="#C0C0C0" stroke="none" d="M 287 400.5 L 298.5 391 L 309 400.5 L 298.5 409 L 287 400.5" opacity="0.2"></path></g><g transform="translate(-6,-6) scale(1,1)"><path fill="#c1eac1" stroke="none" d="M 280 393 L 291 384 L 302 393 L 291 402 L 280 393"></path></g><g transform="translate(-6,-6) scale(1,1)"><path fill="none" stroke="#000000" d="M 280 393 L 291 384 L 302 393 L 291 402 L 280 393 L 280 393" stroke-miterlimit="10"></path></g><g transform="translate(-6,-6) scale(1,1)"><path fill="#C0C0C0" stroke="none" d="M 217 439 L 380 439 Q 390 439 390 449 L 390 469 Q 390 479 380 479 L 217 479 Q 207 479 207 469 L 207 449 Q 207 439 217 439 Z" opacity="0.2"></path></g><g transform="translate(-6,-6) scale(1,1)"><path fill="#9ae79a" stroke="none" d="M 210 432 L 373 432 Q 383 432 383 442 L 383 462 Q 383 472 373 472 L 210 472 Q 200 472 200 462 L 200 442 Q 200 432 210 432 Z"></path></g><g transform="translate(-6,-6) scale(1,1)"><path fill="none" stroke="#000000" d="M 210 432 L 373 432 Q 383 432 383 442 L 383 462 Q 383 472 373 472 L 210 472 Q 200 472 200 462 L 200 442 Q 200 432 210 432 Z" stroke-miterlimit="10"></path></g><g transform="translate(-6,-6) scale(1,1)"><g><path fill="none" stroke="none"></path><text fill="#000000" stroke="none" font-family="Arial" font-size="13px" font-style="normal" font-weight="bold" text-decoration="none" x="212.5" y="451.5">calculate NextReleaseTime</text></g></g><g transform="translate(-6,-6) scale(1,1)"><path fill="none" stroke="#000000" d="M 291 403 L 291 431" stroke-miterlimit="10"></path></g><g transform="translate(-6,-6) scale(1,1)"><path fill="none" stroke="#000000" d="M 286.790482243984 420.83732514237585 L 291 431 L 295.209517756016 420.83732514237585" stroke-miterlimit="10"></path></g><g transform="translate(-6,-6) scale(1,1)"><g><path fill="none" stroke="none"></path><text fill="#000000" stroke="none" font-family="Arial" font-size="13px" font-style="normal" font-weight="normal" text-decoration="none" x="295" y="413"> [_disk.isStable()]</text></g></g><g transform="translate(-6,-6) scale(1,1)"><path fill="#C0C0C0" stroke="none" d="M 448 439 L 582 439 Q 592 439 592 449 L 592 469 Q 592 479 582 479 L 448 479 Q 438 479 438 469 L 438 449 Q 438 439 448 439 Z" opacity="0.2"></path></g><g transform="translate(-6,-6) scale(1,1)"><path fill="#9ae79a" stroke="none" d="M 441 432 L 575 432 Q 585 432 585 442 L 585 462 Q 585 472 575 472 L 441 472 Q 431 472 431 462 L 431 442 Q 431 432 441 432 Z"></path></g><g transform="translate(-6,-6) scale(1,1)"><path fill="none" stroke="#000000" d="M 441 432 L 575 432 Q 585 432 585 442 L 585 462 Q 585 472 575 472 L 441 472 Q 431 472 431 462 L 431 442 Q 431 432 441 432 Z" stroke-miterlimit="10"></path></g><g transform="translate(-6,-6) scale(1,1)"><g><path fill="none" stroke="none"></path><text fill="#000000" stroke="none" font-family="Arial" font-size="13px" font-style="normal" font-weight="bold" text-decoration="none" x="445" y="451.5">calculate CurrentTime</text></g></g><g transform="translate(-6,-6) scale(1,1)"><path fill="none" stroke="#000000" d="M 384 452 L 430 452" stroke-miterlimit="10"></path></g><g transform="translate(-6,-6) scale(1,1)"><path fill="none" stroke="#000000" d="M 419.83732514237585 456.209517756016 L 430 452 L 419.83732514237585 447.790482243984" stroke-miterlimit="10"></path></g><g transform="translate(-6,-6) scale(1,1)"><path fill="#C0C0C0" stroke="none" d="M 504 324.5 L 515.5 315 L 526 324.5 L 515.5 333 L 504 324.5" opacity="0.2"></path></g><g transform="translate(-6,-6) scale(1,1)"><path fill="#c1eac1" stroke="none" d="M 497 317 L 508 308 L 519 317 L 508 326 L 497 317"></path></g><g transform="translate(-6,-6) scale(1,1)"><path fill="none" stroke="#000000" d="M 497 317 L 508 308 L 519 317 L 508 326 L 497 317 L 497 317" stroke-miterlimit="10"></path></g><g transform="translate(-6,-6) scale(1,1)"><path fill="none" stroke="#000000" d="M 508 431 L 508 327" stroke-miterlimit="10"></path></g><g transform="translate(-6,-6) scale(1,1)"><path fill="none" stroke="#000000" d="M 512.209517756016 337.16267485762415 L 508 327 L 503.790482243984 337.16267485762415" stroke-miterlimit="10"></path></g><g transform="translate(-6,-6) scale(1,1)"><path fill="#C0C0C0" stroke="none" d="M 463 207 L 568 207 Q 578 207 578 217 L 578 237 Q 578 247 568 247 L 463 247 Q 453 247 453 237 L 453 217 Q 453 207 463 207 Z" opacity="0.2"></path></g><g transform="translate(-6,-6) scale(1,1)"><path fill="#9ae79a" stroke="none" d="M 456 200 L 561 200 Q 571 200 571 210 L 571 230 Q 571 240 561 240 L 456 240 Q 446 240 446 230 L 446 210 Q 446 200 456 200 Z"></path></g><g transform="translate(-6,-6) scale(1,1)"><path fill="none" stroke="#000000" d="M 456 200 L 561 200 Q 571 200 571 210 L 571 230 Q 571 240 561 240 L 456 240 Q 446 240 446 230 L 446 210 Q 446 200 456 200 Z" stroke-miterlimit="10"></path></g><g transform="translate(-6,-6) scale(1,1)"><g><path fill="none" stroke="none"></path><text fill="#000000" stroke="none" font-family="Arial" font-size="13px" font-style="normal" font-weight="bold" text-decoration="none" x="456.5" y="219.5">releaseTheKraken</text></g></g><g transform="translate(-6,-6) scale(1,1)"><path fill="none" stroke="#000000" d="M 508 307 L 508 241" stroke-miterlimit="10"></path></g><g transform="translate(-6,-6) scale(1,1)"><path fill="none" stroke="#000000" d="M 512.209517756016 251.16267485762415 L 508 241 L 503.790482243984 251.16267485762415" stroke-miterlimit="10"></path></g><g transform="translate(-6,-6) scale(1,1)"><g><path fill="none" stroke="none"></path><text fill="#000000" stroke="none" font-family="Arial" font-size="13px" font-style="normal" font-weight="normal" text-decoration="none" x="511" y="280"> [currentTime &gt;= nextReleaseTime - 0.5 * _pollInterval  and  currentTime  &lt;= nextReleaseTime + 0.5 * _pollInterval]</text></g></g><g transform="translate(-6,-6) scale(1,1)"><path fill="none" stroke="#000000" d="M 291 36 L 291 53" stroke-miterlimit="10"></path></g><g transform="translate(-6,-6) scale(1,1)"><path fill="none" stroke="#000000" d="M 286.790482243984 42.837325142375846 L 291 53 L 295.209517756016 42.837325142375846" stroke-miterlimit="10"></path></g><g transform="translate(-6,-6) scale(1,1)"><path fill="none" stroke="#000000" d="M 496 317 L 337 318" stroke-miterlimit="10"></path></g><g transform="translate(-6,-6) scale(1,1)"><path fill="none" stroke="#000000" d="M 347.1359994384236 313.72665056609253 L 337 318 L 347.188948300108 322.1455195739167" stroke-miterlimit="10"></path></g><g transform="translate(-6,-6) scale(1,1)"><g><path fill="none" stroke="none"></path><text fill="#000000" stroke="none" font-family="Arial" font-size="13px" font-style="normal" font-weight="normal" text-decoration="none" x="447" y="309"> [else]</text></g></g><g transform="translate(-6,-6) scale(1,1)"><rect fill="#ffffff" stroke="none" x="569" y="205" width="17" height="17"></rect></g><g transform="translate(-6,-6) scale(1,1)"><path fill="none" stroke="#000000" d="M 569 205 L 586 205 L 586 222 L 569 222 L 569 205 Z Z" stroke-miterlimit="10"></path></g><g transform="translate(-6,-6) scale(1,1)"><path fill="none" stroke="#000000" d="M 571 213 L 584 213" stroke-miterlimit="10"></path></g><g transform="translate(-6,-6) scale(1,1)"><path fill="none" stroke="#000000" d="M 584 213 L 581 210" stroke-miterlimit="10"></path></g><g transform="translate(-6,-6) scale(1,1)"><path fill="none" stroke="#000000" d="M 584 213 L 581 216" stroke-miterlimit="10"></path></g><g transform="translate(-6,-6) scale(1,1)"><g><path fill="none" stroke="none"></path><text fill="#000000" stroke="none" font-family="Arial" font-size="13px" font-style="normal" font-weight="normal" text-decoration="none" x="595.5" y="218">_release: Release</text></g></g><g transform="translate(-6,-6) scale(1,1)"><rect fill="#ffffff" stroke="none" x="232" y="64" width="17" height="17"></rect></g><g transform="translate(-6,-6) scale(1,1)"><path fill="none" stroke="#000000" d="M 232 64 L 249 64 L 249 81 L 232 81 L 232 64 Z Z" stroke-miterlimit="10"></path></g><g transform="translate(-6,-6) scale(1,1)"><path fill="none" stroke="#000000" d="M 234 72 L 247 72" stroke-miterlimit="10"></path></g><g transform="translate(-6,-6) scale(1,1)"><path fill="none" stroke="#000000" d="M 247 72 L 244 69" stroke-miterlimit="10"></path></g><g transform="translate(-6,-6) scale(1,1)"><path fill="none" stroke="#000000" d="M 247 72 L 244 75" stroke-miterlimit="10"></path></g><g transform="translate(-6,-6) scale(1,1)"><g><path fill="none" stroke="none"></path><text fill="#000000" stroke="none" font-family="Arial" font-size="13px" font-style="normal" font-weight="normal" text-decoration="none" x="87.5" y="76">_pSensor: PhotoSensor</text></g></g><g transform="translate(-6,-6) scale(1,1)"><rect fill="#ffffff" stroke="none" x="232" y="80" width="17" height="17"></rect></g><g transform="translate(-6,-6) scale(1,1)"><path fill="none" stroke="#000000" d="M 232 80 L 249 80 L 249 97 L 232 97 L 232 80 Z Z" stroke-miterlimit="10"></path></g><g transform="translate(-6,-6) scale(1,1)"><path fill="none" stroke="#000000" d="M 234 88 L 247 88" stroke-miterlimit="10"></path></g><g transform="translate(-6,-6) scale(1,1)"><path fill="none" stroke="#000000" d="M 247 88 L 244 85" stroke-miterlimit="10"></path></g><g transform="translate(-6,-6) scale(1,1)"><path fill="none" stroke="#000000" d="M 247 88 L 244 91" stroke-miterlimit="10"></path></g><g transform="translate(-6,-6) scale(1,1)"><g><path fill="none" stroke="none"></path><text fill="#000000" stroke="none" font-family="Arial" font-size="13px" font-style="normal" font-weight="normal" text-decoration="none" x="96.5" y="92">_hSensor: HallSensor</text></g></g><g transform="translate(-6,-6) scale(1,1)"><rect fill="#ffffff" stroke="none" x="233" y="296" width="17" height="17"></rect></g><g transform="translate(-6,-6) scale(1,1)"><path fill="none" stroke="#000000" d="M 233 296 L 250 296 L 250 313 L 233 313 L 233 296 Z Z" stroke-miterlimit="10"></path></g><g transform="translate(-6,-6) scale(1,1)"><path fill="none" stroke="#000000" d="M 235 304 L 248 304" stroke-miterlimit="10"></path></g><g transform="translate(-6,-6) scale(1,1)"><path fill="none" stroke="#000000" d="M 248 304 L 245 301" stroke-miterlimit="10"></path></g><g transform="translate(-6,-6) scale(1,1)"><path fill="none" stroke="#000000" d="M 248 304 L 245 307" stroke-miterlimit="10"></path></g><g transform="translate(-6,-6) scale(1,1)"><g><path fill="none" stroke="none"></path><text fill="#000000" stroke="none" font-family="Arial" font-size="13px" font-style="normal" font-weight="normal" text-decoration="none" x="87.5" y="308">_pSensor: PhotoSensor</text></g></g><g transform="translate(-6,-6) scale(1,1)"><rect fill="#ffffff" stroke="none" x="233" y="312" width="17" height="17"></rect></g><g transform="translate(-6,-6) scale(1,1)"><path fill="none" stroke="#000000" d="M 233 312 L 250 312 L 250 329 L 233 329 L 233 312 Z Z" stroke-miterlimit="10"></path></g><g transform="translate(-6,-6) scale(1,1)"><path fill="none" stroke="#000000" d="M 235 320 L 248 320" stroke-miterlimit="10"></path></g><g transform="translate(-6,-6) scale(1,1)"><path fill="none" stroke="#000000" d="M 248 320 L 245 317" stroke-miterlimit="10"></path></g><g transform="translate(-6,-6) scale(1,1)"><path fill="none" stroke="#000000" d="M 248 320 L 245 323" stroke-miterlimit="10"></path></g><g transform="translate(-6,-6) scale(1,1)"><g><path fill="none" stroke="none"></path><text fill="#000000" stroke="none" font-family="Arial" font-size="13px" font-style="normal" font-weight="normal" text-decoration="none" x="95.5" y="324">_hSensor: HallSensor</text></g></g><g transform="translate(-6,-6) scale(1,1)"><path fill="none" stroke="#000000" d="M 291 353 L 291 383" stroke-miterlimit="10"></path></g><g transform="translate(-6,-6) scale(1,1)"><path fill="none" stroke="#000000" d="M 286.790482243984 372.83732514237585 L 291 383 L 295.209517756016 372.83732514237585" stroke-miterlimit="10"></path></g><g transform="translate(-6,-6) scale(1,1)"><path fill="#C0C0C0" stroke="none" d="M 33 295 L 72 295 Q 82 295 82 305 L 82 325 Q 82 335 72 335 L 33 335 Q 23 335 23 325 L 23 305 Q 23 295 33 295 Z" opacity="0.2"></path></g><g transform="translate(-6,-6) scale(1,1)"><path fill="#9ae79a" stroke="none" d="M 26 288 L 65 288 Q 75 288 75 298 L 75 318 Q 75 328 65 328 L 26 328 Q 16 328 16 318 L 16 298 Q 16 288 26 288 Z"></path></g><g transform="translate(-6,-6) scale(1,1)"><path fill="none" stroke="#000000" d="M 26 288 L 65 288 Q 75 288 75 298 L 75 318 Q 75 328 65 328 L 26 328 Q 16 328 16 318 L 16 298 Q 16 288 26 288 Z" stroke-miterlimit="10"></path></g><g transform="translate(-6,-6) scale(1,1)"><g><path fill="none" stroke="none"></path><text fill="#000000" stroke="none" font-family="Arial" font-size="13px" font-style="normal" font-weight="bold" text-decoration="none" x="30" y="307.5">delay</text></g></g><g transform="translate(-6,-6) scale(1,1)"><path fill="none" stroke="#000000" d="M 279 394 Q 136 400 66 329" stroke-miterlimit="10"></path></g><g transform="translate(-6,-6) scale(1,1)"><path fill="none" stroke="#000000" d="M 76.13256529459717 333.28148578775233 L 66 329 L 70.13733799655164 339.1922732646986" stroke-miterlimit="10"></path></g><g transform="translate(-6,-6) scale(1,1)"><g><path fill="none" stroke="none"></path><text fill="#000000" stroke="none" font-family="Arial" font-size="13px" font-style="normal" font-weight="normal" text-decoration="none" x="150" y="403"> [else]</text></g></g><g transform="translate(-6,-6) scale(1,1)"><path fill="none" stroke="#000000" d="M 59 287 Q 120 192 246 120" stroke-miterlimit="10"></path></g><g transform="translate(-6,-6) scale(1,1)"><path fill="none" stroke="#000000" d="M 239.26483291969117 128.69698363803937 L 246 120 L 235.08782157876314 121.38721379141532" stroke-miterlimit="10"></path></g><g transform="translate(-6,-6) scale(1,1)"><path fill="#C0C0C0" stroke="none" d="M 496 81 L 535 81 Q 545 81 545 91 L 545 111 Q 545 121 535 121 L 496 121 Q 486 121 486 111 L 486 91 Q 486 81 496 81 Z" opacity="0.2"></path></g><g transform="translate(-6,-6) scale(1,1)"><path fill="#9ae79a" stroke="none" d="M 489 74 L 528 74 Q 538 74 538 84 L 538 104 Q 538 114 528 114 L 489 114 Q 479 114 479 104 L 479 84 Q 479 74 489 74 Z"></path></g><g transform="translate(-6,-6) scale(1,1)"><path fill="none" stroke="#000000" d="M 489 74 L 528 74 Q 538 74 538 84 L 538 104 Q 538 114 528 114 L 489 114 Q 479 114 479 104 L 479 84 Q 479 74 489 74 Z" stroke-miterlimit="10"></path></g><g transform="translate(-6,-6) scale(1,1)"><g><path fill="none" stroke="none"></path><text fill="#000000" stroke="none" font-family="Arial" font-size="13px" font-style="normal" font-weight="bold" text-decoration="none" x="493" y="93.5">delay</text></g></g><g transform="translate(-6,-6) scale(1,1)"><path fill="none" stroke="#000000" d="M 508 199 L 508 115" stroke-miterlimit="10"></path></g><g transform="translate(-6,-6) scale(1,1)"><path fill="none" stroke="#000000" d="M 512.209517756016 125.16267485762415 L 508 115 L 503.790482243984 125.16267485762415" stroke-miterlimit="10"></path></g><g transform="translate(-6,-6) scale(1,1)"><rect fill="#ffffff" stroke="none" x="232" y="96" width="17" height="17"></rect></g><g transform="translate(-6,-6) scale(1,1)"><path fill="none" stroke="#000000" d="M 232 96 L 249 96 L 249 113 L 232 113 L 232 96 Z Z" stroke-miterlimit="10"></path></g><g transform="translate(-6,-6) scale(1,1)"><path fill="none" stroke="#000000" d="M 234 104 L 247 104" stroke-miterlimit="10"></path></g><g transform="translate(-6,-6) scale(1,1)"><path fill="none" stroke="#000000" d="M 247 104 L 244 101" stroke-miterlimit="10"></path></g><g transform="translate(-6,-6) scale(1,1)"><path fill="none" stroke="#000000" d="M 247 104 L 244 107" stroke-miterlimit="10"></path></g><g transform="translate(-6,-6) scale(1,1)"><g><path fill="none" stroke="none"></path><text fill="#000000" stroke="none" font-family="Arial" font-size="13px" font-style="normal" font-weight="normal" text-decoration="none" x="134.5" y="107">_trigger: Trigger</text></g></g><g transform="translate(-6,-6) scale(1,1)"><rect fill="#ffffff" stroke="none" x="233" y="328" width="17" height="17"></rect></g><g transform="translate(-6,-6) scale(1,1)"><path fill="none" stroke="#000000" d="M 233 328 L 250 328 L 250 345 L 233 345 L 233 328 Z Z" stroke-miterlimit="10"></path></g><g transform="translate(-6,-6) scale(1,1)"><path fill="none" stroke="#000000" d="M 235 336 L 248 336" stroke-miterlimit="10"></path></g><g transform="translate(-6,-6) scale(1,1)"><path fill="none" stroke="#000000" d="M 248 336 L 245 333" stroke-miterlimit="10"></path></g><g transform="translate(-6,-6) scale(1,1)"><path fill="none" stroke="#000000" d="M 248 336 L 245 339" stroke-miterlimit="10"></path></g><g transform="translate(-6,-6) scale(1,1)"><g><path fill="none" stroke="none"></path><text fill="#000000" stroke="none" font-family="Arial" font-size="13px" font-style="normal" font-weight="normal" text-decoration="none" x="133.5" y="339">_trigger: Trigger</text></g></g><g transform="translate(-6,-6) scale(1,1)"><path fill="#C0C0C0" stroke="none" d="M 399 101.5 L 410.5 92 L 421 101.5 L 410.5 110 L 399 101.5" opacity="0.2"></path></g><g transform="translate(-6,-6) scale(1,1)"><path fill="#c1eac1" stroke="none" d="M 392 94 L 403 85 L 414 94 L 403 103 L 392 94"></path></g><g transform="translate(-6,-6) scale(1,1)"><path fill="none" stroke="#000000" d="M 392 94 L 403 85 L 414 94 L 403 103 L 392 94 L 392 94" stroke-miterlimit="10"></path></g><g transform="translate(-6,-6) scale(1,1)"><path fill="none" stroke="#000000" d="M 478 94 L 415 94" stroke-miterlimit="10"></path></g><g transform="translate(-6,-6) scale(1,1)"><path fill="none" stroke="#000000" d="M 425.16267485762415 89.79048224398402 L 415 94 L 425.16267485762415 98.20951775601598" stroke-miterlimit="10"></path></g><g transform="translate(-6,-6) scale(1,1)"><path fill="none" stroke="#000000" d="M 391 94 L 337 94" stroke-miterlimit="10"></path></g><g transform="translate(-6,-6) scale(1,1)"><path fill="none" stroke="#000000" d="M 347.16267485762415 89.79048224398402 L 337 94 L 347.16267485762415 98.20951775601598" stroke-miterlimit="10"></path></g><g transform="translate(-6,-6) scale(1,1)"><g><path fill="none" stroke="none"></path><text fill="#000000" stroke="none" font-family="Arial" font-size="13px" font-style="normal" font-weight="normal" text-decoration="none" x="351" y="91"> [else]</text></g></g><g transform="translate(-6,-6) scale(1,1)"><path fill="none" stroke="#000000" d="M 394 104 Q 336 168 301 284" stroke-miterlimit="10"></path></g><g transform="translate(-6,-6) scale(1,1)"><path fill="none" stroke="#000000" d="M 299.9055399951141 273.0545828175576 L 301 284 L 307.9656786214285 275.48652119618697" stroke-miterlimit="10"></path></g><g transform="translate(-6,-6) scale(1,1)"><g><path fill="none" stroke="none"></path><text fill="#000000" stroke="none" font-family="Arial" font-size="13px" font-style="normal" font-weight="normal" text-decoration="none" x="367" y="150"> [_triggerCount &gt;  0]</text></g></g></g></svg>